<?xml version="1.0" encoding="utf-8"?>
<!-- Generator: Adobe Illustrator 24.0.0, SVG Export Plug-In . SVG Version: 6.00 Build 0)  -->
<svg version="1.1" id="Layer_1" xmlns="http://www.w3.org/2000/svg" xmlns:xlink="http://www.w3.org/1999/xlink" x="0px" y="0px"
	 viewBox="0 0 612 792" style="enable-background:new 0 0 612 792;" xml:space="preserve">
<style type="text/css">
	.st0{fill:#FFFFFF;}
</style>
<g>
	
		<image style="overflow:visible;enable-background:new    ;" width="550" height="536" xlink:href="Screen Shot 2020-05-22 at 9.45.18 AM.png"  transform="matrix(0.5 0 0 0.5 169 262)">
	</image>
	<path class="st0" d="M345.4,262"/>
	<path class="st0" d="M186.4,325.5"/>
	<path class="st0" d="M424.7,426.2"/>
	<path class="st0" d="M391.8,444l-84.5,49.1L391.8,444z"/>
	<g>
		<polygon class="st0" points="391.8,408.1 351.6,420.9 307.3,446 307.3,493.1 391.8,444 		"/>
	</g>
	<g>
		<polygon class="st0" points="222.3,346.1 262.8,322.7 262.8,457 222.3,432.1 		"/>
		<polygon class="st0" points="222.3,443.8 307.3,493.1 338.5,474.7 338.5,464.6 222.3,397.3 		"/>
		<polygon class="st0" points="391.8,408.1 351.8,425 351.8,384.3 391.8,407.1 		"/>
	</g>
	<polygon class="st0" points="391.8,392.8 391.8,345.9 360.5,327.9 319.9,351.1 	"/>
	<polygon class="st0" points="307.3,358.2 275.7,376.6 275.7,413.3 307.3,431.5 338.5,413.1 338.5,376.6 	"/>
	<polygon class="st0" points="275.7,315.1 307.1,297 347.3,320.3 275.7,361.9 	"/>
	<polygon class="st0" points="208.9,466.3 208.9,338.3 208.9,262 169,262 164.2,530 208.9,530 	"/>
	<rect x="405" y="262" class="st0" width="39" height="268"/>
	<polygon class="st0" points="405,451.4 268.8,530 405,530 	"/>
	<polygon class="st0" points="208.9,451.4 351.8,533.7 208.9,530 	"/>
	<polygon class="st0" points="208.9,338.3 341.5,262 208.9,262 	"/>
	<polygon class="st0" points="405,338.3 272.7,262 405,262 	"/>
</g>
</svg>
