<?xml version="1.0" encoding="utf-8"?>
<!-- Generator: Adobe Illustrator 24.0.0, SVG Export Plug-In . SVG Version: 6.00 Build 0)  -->
<svg version="1.1" id="Layer_1" xmlns="http://www.w3.org/2000/svg" xmlns:xlink="http://www.w3.org/1999/xlink" x="0px" y="0px"
	 viewBox="0 0 1564 1080" style="enable-background:new 0 0 1564 1080;" xml:space="preserve">
<style type="text/css">
	.st0{fill:none;stroke:#4CB88A;stroke-width:20;}
	.st1{fill:none;stroke:#2EAD6C;stroke-width:19.2364;}
	.st2{fill:none;stroke:#88CFBA;stroke-width:18.6909;}
	.st3{fill:none;stroke:#64C1A2;stroke-width:16.0727;}
	.st4{fill:none;stroke:#30AE6E;stroke-width:15.5273;}
	.st5{fill:none;stroke:#43B481;stroke-width:12.4727;}
	.st6{fill:none;stroke:#4CB88A;stroke-width:12.1455;}
	.st7{fill:none;stroke:#6EC5A7;stroke-width:11.2727;}
	.st8{fill:none;stroke:#7ECBB3;stroke-width:11.0545;}
	.st9{fill:none;stroke:#78C9AE;stroke-width:9.6364;}
	.st10{fill:none;stroke:#4EB98C;stroke-width:9.3091;}
	.st11{fill:none;stroke:#4CB88A;stroke-width:8.7636;}
	.st12{fill:none;stroke:#76C8AB;stroke-width:8.7636;}
	.st13{fill:none;stroke:#92D3C0;stroke-width:8.6545;}
	.st14{fill:none;stroke:#C4E7E0;stroke-width:8.4364;}
	.st15{fill:none;stroke:#47B685;stroke-width:7.8909;}
	.st16{fill:none;stroke:#84CEB7;stroke-width:7.6727;}
	.st17{fill:none;stroke:#8BD1BA;stroke-width:7.0182;}
	.st18{fill:none;stroke:#5FC08D;stroke-width:7.0182;}
	.st19{fill:none;stroke:#52BA8E;stroke-width:6.9091;}
	.st20{fill:none;stroke:#8FD2BE;stroke-width:6.5818;}
	.st21{fill:none;stroke:#55BB93;stroke-width:6.4727;}
	.st22{fill:none;stroke:#ABDDD1;stroke-width:6.1455;}
	.st23{fill:none;stroke:#58BD89;stroke-width:5.4909;}
	.st24{fill:none;stroke:#4EBA82;stroke-width:5.3818;}
	.st25{fill:none;stroke:#66C392;stroke-width:5.3818;}
	.st26{fill:none;stroke:#7CCAB1;stroke-width:5.2727;}
	.st27{fill:none;stroke:#72C7A6;stroke-width:5.1636;}
	.st28{fill:none;stroke:#52BA90;stroke-width:5.1636;}
	.st29{fill:none;stroke:#B4E1D6;stroke-width:5.0545;}
	.st30{fill:none;stroke:#8CD1B7;stroke-width:4.9455;}
	.st31{fill:none;stroke:#21A85F;stroke-width:4.8364;}
	.st32{fill:none;stroke:#90D3BA;stroke-width:4.6182;}
	.st33{fill:none;stroke:#C1E6DF;stroke-width:4.2909;}
	.st34{fill:none;stroke:#6AC49E;stroke-width:4.0727;}
	.st35{fill:none;stroke:#92D4BC;stroke-width:4.0727;}
	.st36{fill:none;stroke:#7ACAAB;stroke-width:3.9636;}
	.st37{fill:none;stroke:#48B77F;stroke-width:3.9636;}
	.st38{fill:none;stroke:#C1E6DE;stroke-width:3.9636;}
	.st39{fill:none;stroke:#E2F3F4;stroke-width:3.9636;}
	.st40{fill:none;stroke:#C6E8E2;stroke-width:3.8545;}
	.st41{fill:none;stroke:#4BB789;stroke-width:3.8545;}
	.st42{fill:none;stroke:#76C8A9;stroke-width:3.8545;}
	.st43{fill:none;stroke:#85CEB8;stroke-width:3.7455;}
	.st44{fill:none;stroke:#9BD7C6;stroke-width:3.7455;}
	.st45{fill:none;stroke:#C0E6DE;stroke-width:3.7455;}
	.st46{fill:none;stroke:#87CFB3;stroke-width:3.7455;}
	.st47{fill:none;stroke:#DDF1F0;stroke-width:3.7455;}
	.st48{fill:none;stroke:#98D6C3;stroke-width:3.6364;}
	.st49{fill:none;stroke:#95D5BD;stroke-width:3.5273;}
	.st50{fill:none;stroke:#A6DBCD;stroke-width:3.5273;}
	.st51{fill:none;stroke:#D6EFEC;stroke-width:3.5273;}
	.st52{fill:none;stroke:#56BD88;stroke-width:3.5273;}
	.st53{fill:none;stroke:#D3EDEA;stroke-width:3.5273;}
	.st54{fill:none;stroke:#C7E8E3;stroke-width:3.4182;}
	.st55{fill:none;stroke:#6FC798;stroke-width:3.4182;}
	.st56{fill:none;stroke:#E5F4F6;stroke-width:3.4182;}
	.st57{fill:none;stroke:#72C7A6;stroke-width:3.3091;}
	.st58{fill:none;stroke:#70C6A4;stroke-width:3.3091;}
	.st59{fill:none;stroke:#54BC86;stroke-width:3.2;}
	.st60{fill:none;stroke:#B6E2D8;stroke-width:3.2;}
	.st61{fill:none;stroke:#E6F5F6;stroke-width:3.2;}
	.st62{fill:none;stroke:#96D5BE;stroke-width:3.2;}
	.st63{fill:none;stroke:#8BD1B7;stroke-width:3.2;}
	.st64{fill:none;stroke:#70C798;stroke-width:3.2;}
	.st65{fill:none;stroke:#30AE6E;stroke-width:3.0909;}
	.st66{fill:none;stroke:#50BA83;stroke-width:3.0909;}
	.st67{fill:none;stroke:#C1E6DF;stroke-width:2.9818;}
	.st68{fill:none;stroke:#71C899;stroke-width:2.9818;}
	.st69{fill:none;stroke:#8CD1BB;stroke-width:2.9818;}
	.st70{fill:none;stroke:#DEF2F1;stroke-width:2.9818;}
	.st71{fill:none;stroke:#A3DACB;stroke-width:2.9818;}
	.st72{fill:none;stroke:#AEDED2;stroke-width:2.8727;}
	.st73{fill:none;stroke:#93D3C0;stroke-width:2.8727;}
	.st74{fill:none;stroke:#98D6BF;stroke-width:2.8727;}
	.st75{fill:none;stroke:#97D5C2;stroke-width:2.8727;}
	.st76{fill:none;stroke:#94D4C0;stroke-width:2.8727;}
	.st77{fill:none;stroke:#51BA8F;stroke-width:2.8727;}
	.st78{fill:none;stroke:#93D4BB;stroke-width:2.8727;}
	.st79{fill:none;stroke:#4AB788;stroke-width:2.7636;}
	.st80{fill:none;stroke:#DFF2F2;stroke-width:2.7636;}
	.st81{fill:none;stroke:#1AA558;stroke-width:2.7636;}
	.st82{fill:none;stroke:#C0E6DE;stroke-width:2.6545;}
	.st83{fill:none;stroke:#C1E6DF;stroke-width:2.6545;}
	.st84{fill:none;stroke:#8DD2B5;stroke-width:2.6545;}
	.st85{fill:none;stroke:#9FD9C7;stroke-width:2.6545;}
	.st86{fill:none;stroke:#96D5C3;stroke-width:2.6545;}
	.st87{fill:none;stroke:#D0ECE8;stroke-width:2.6545;}
	.st88{fill:none;stroke:#83CDB6;stroke-width:2.5455;}
	.st89{fill:none;stroke:#3EB27C;stroke-width:2.5455;}
	.st90{fill:none;stroke:#BCE4DB;stroke-width:2.5455;}
	.st91{fill:none;stroke:#7ECCAF;stroke-width:2.5455;}
	.st92{fill:none;stroke:#8DD1BC;stroke-width:2.5455;}
	.st93{fill:none;stroke:#D0ECE8;stroke-width:2.5455;}
	.st94{fill:none;stroke:#95D5BC;stroke-width:2.5455;}
	.st95{fill:none;stroke:#75C8A9;stroke-width:2.4364;}
	.st96{fill:none;stroke:#ABDDD1;stroke-width:2.4364;}
	.st97{fill:none;stroke:#7ACAA8;stroke-width:2.4364;}
	.st98{fill:none;stroke:#AFDFD3;stroke-width:2.4364;}
	.st99{fill:none;stroke:#EAF7F9;stroke-width:2.4364;}
	.st100{fill:none;stroke:#A3DACA;stroke-width:2.4364;}
	.st101{fill:none;stroke:#31AE6F;stroke-width:2.4364;}
	.st102{fill:none;stroke:#8ED2B5;stroke-width:2.4364;}
	.st103{fill:none;stroke:#72C7AB;stroke-width:2.4364;}
	.st104{fill:none;stroke:#4FBA83;stroke-width:2.3273;}
	.st105{fill:none;stroke:#DCF1F0;stroke-width:2.3273;}
	.st106{fill:none;stroke:#85CEB3;stroke-width:2.3273;}
	.st107{fill:none;stroke:#67C493;stroke-width:2.3273;}
	.st108{fill:none;stroke:#D5EEEB;stroke-width:2.3273;}
	.st109{fill:none;stroke:#74C8A7;stroke-width:2.3273;}
	.st110{fill:none;stroke:#9AD7C1;stroke-width:2.3273;}
	.st111{fill:none;stroke:#E6F5F6;stroke-width:2.3273;}
	.st112{fill:none;stroke:#6DC696;stroke-width:2.3273;}
	.st113{fill:none;stroke:#80CCB4;stroke-width:2.3273;}
	.st114{fill:none;stroke:#E1F3F3;stroke-width:2.2182;}
	.st115{fill:none;stroke:#75C99B;stroke-width:2.2182;}
	.st116{fill:none;stroke:#91D3BD;stroke-width:2.2182;}
	.st117{fill:none;stroke:#9ED8C8;stroke-width:2.2182;}
	.st118{fill:none;stroke:#89D0B5;stroke-width:2.2182;}
	.st119{fill:none;stroke:#9DD7C7;stroke-width:2.2182;}
	.st120{fill:none;stroke:#8FD3B6;stroke-width:2.2182;}
	.st121{fill:none;stroke:#5ABD98;stroke-width:2.2182;}
	.st122{fill:none;stroke:#88CFB8;stroke-width:2.2182;}
	.st123{fill:none;stroke:#EBF7FA;stroke-width:2.2182;}
	.st124{fill:none;stroke:#E3F4F5;stroke-width:2.1091;}
	.st125{fill:none;stroke:#98D6C4;stroke-width:2.1091;}
	.st126{fill:none;stroke:#75C99C;stroke-width:2.1091;}
	.st127{fill:none;stroke:#58BE89;stroke-width:2.1091;}
	.st128{fill:none;stroke:#6EC697;stroke-width:2.1091;}
	.st129{fill:none;stroke:#53BB91;stroke-width:2.1091;}
	.st130{fill:none;stroke:#CCEAE6;stroke-width:2.1091;}
	.st131{fill:none;stroke:#96D5BF;stroke-width:2;}
	.st132{fill:none;stroke:#A3DACB;stroke-width:2;}
	.st133{fill:none;stroke:#A7DCCD;stroke-width:2;}
	.st134{fill:none;stroke:#76CA9C;stroke-width:2;}
	.st135{fill:none;stroke:#66C392;stroke-width:2;}
	.st136{fill:none;stroke:#87D0B3;stroke-width:2;}
	.st137{fill:none;stroke:#66C29B;stroke-width:2;}
	.st138{fill:none;stroke:#AEDED2;stroke-width:2;}
	.st139{fill:none;stroke:#93D4BC;stroke-width:2;}
	.st140{fill:none;stroke:#91D3BA;stroke-width:2;}
	.st141{fill:none;stroke:#98D6BE;stroke-width:2;}
	.st142{fill:#4CB88A;stroke:#000000;}
	.st143{fill:#51BA8F;stroke:#000000;}
	.st144{fill:#43B581;stroke:#000000;}
	.st145{fill:#56BC94;stroke:#000000;}
	.st146{fill:#009C3E;stroke:#000000;}
	.st147{fill:#5DBE9B;stroke:#000000;}
	.st148{fill:#89D0BB;stroke:#000000;}
	.st149{fill:#87CFB9;stroke:#000000;}
	.st150{fill:#64C1A2;stroke:#000000;stroke-width:1;stroke-miterlimit:3.9998;}
	.st151{fill:#64C1A2;stroke:#000000;stroke-width:1;stroke-miterlimit:4.0002;}
	.st152{fill:#61C09F;stroke:#000000;}
	.st153{fill:#35AF73;stroke:#000000;}
	.st154{fill:#64C1A2;stroke:#000000;}
	.st155{fill:#84CEB7;stroke:#000000;}
	.st156{fill:#59BD97;stroke:#000000;}
	.st157{fill:#63C1A1;stroke:#000000;}
	.st158{fill:#99D6C5;stroke:#000000;}
	.st159{fill:#47B685;stroke:#000000;}
	.st160{fill:#8FD2BE;stroke:#000000;stroke-width:1;stroke-miterlimit:3.9999;}
	.st161{fill:#9CD7C7;stroke:#000000;}
	.st162{fill:#AFDFD3;stroke:#000000;}
	.st163{fill:#76C8AE;stroke:#000000;}
	.st164{fill:#BFE5DD;stroke:#000000;}
	.st165{fill:#CAEAE4;stroke:#000000;}
	.st166{fill:#9ED8C8;stroke:#000000;}
	.st167{fill:#6BC4A7;stroke:#000000;}
	.st168{fill:#BEE5DD;stroke:#000000;}
	.st169{fill:#6FC5AA;stroke:#000000;}
	.st170{fill:#A8DCCE;stroke:#000000;}
	.st171{fill:#5FBF9D;stroke:#000000;}
	.st172{fill:#91D3C0;stroke:#000000;}
	.st173{fill:#C6E8E2;stroke:#000000;}
	.st174{fill:#B0DFD4;stroke:#000000;}
	.st175{fill:#9DD8C7;stroke:#000000;}
	.st176{fill:#CDEBE6;stroke:#000000;}
	.st177{fill:#97D5C3;stroke:#000000;}
	.st178{fill:#ACDED1;stroke:#000000;}
	.st179{fill:#BCE4DB;stroke:#000000;}
	.st180{fill:#D1EDE9;stroke:#000000;}
	.st181{fill:#D4EEEB;stroke:#000000;}
	.st182{fill:#ABDDD0;stroke:#000000;}
	.st183{fill:#D7EFED;stroke:#000000;}
	.st184{fill:#A0D9C9;stroke:#000000;}
	.st185{fill:#D9F0EE;stroke:#000000;}
	.st186{fill:#ADDED2;stroke:#000000;}
	.st187{fill:#E2F3F4;stroke:#000000;stroke-width:1;stroke-miterlimit:4.0001;}
	.st188{fill:#E2F3F4;stroke:#000000;}
	.st189{fill:#9FD9C9;stroke:#000000;}
	.st190{fill:#CBEAE5;stroke:#000000;}
	.st191{fill:#A5DBCD;stroke:#000000;}
	.st192{fill:#DCF1F0;stroke:#000000;}
	.st193{fill:#D8EFED;stroke:#000000;}
	.st194{fill:#E3F4F4;stroke:#000000;stroke-width:1;stroke-miterlimit:4.0001;}
	.st195{fill:#DEF2F1;stroke:#000000;}
	.st196{fill:#D6EFEC;stroke:#000000;stroke-width:1;stroke-miterlimit:4.0001;}
	.st197{fill:#C9E9E4;stroke:#000000;}
	.st198{fill:#DFF2F2;stroke:#000000;}
	.st199{fill:#DFF2F2;stroke:#000000;stroke-width:1;stroke-miterlimit:4;}
	.st200{fill:#E5F4F6;stroke:#000000;}
	.st201{fill:#E5F4F6;stroke:#000000;stroke-width:1;stroke-miterlimit:4.0001;}
	.st202{fill:#CFECE8;stroke:#000000;}
	.st203{fill:#E6F5F6;stroke:#000000;}
	.st204{fill:#E1F3F3;stroke:#000000;}
	.st205{fill:#E3F4F5;stroke:#000000;}
	.st206{fill:#BAE3DA;stroke:#000000;}
	.st207{fill:#E7F5F7;stroke:#000000;}
	.st208{fill:#E4F4F5;stroke:#000000;}
	.st209{fill:#E8F6F8;stroke:#000000;}
	.st210{fill:#B1E0D4;stroke:#000000;}
	.st211{fill:#E6F5F7;stroke:#000000;}
	.st212{fill:#EAF7F9;stroke:#000000;}
	.st213{fill:#EBF7F9;stroke:#000000;}
	.st214{fill:#E9F6F9;stroke:#000000;}
	.st215{fill:#DAF0EF;stroke:#000000;}
	.st216{fill:#CCEBE6;stroke:#000000;}
	.st217{fill:#EBF7FA;stroke:#000000;}
	.st218{fill:#EDF8FB;stroke:#000000;}
	.st219{font-family:'TimesNewRomanPSMT';}
	.st220{font-size:21px;}
	.st221{font-size:20px;}
	.st222{font-size:19px;}
	.st223{fill:#FFFDFD;}
	.st224{font-family:'TimesNewRomanPS-BoldMT';}
	.st225{font-size:20.6741px;}
	.st226{font-size:23px;}
</style>
<g id="edges">
	<path class="st0" d="M545.8,371l-0.8,67.6"/>
	<path class="st1" d="M375.5,686.7l144.4-88"/>
	<path class="st2" d="M1406.2,587.3l-30.6-64.3"/>
	<path class="st3" d="M794.4,879.4l-25.3,68.4"/>
	<path class="st4" d="M375.5,686.7l339.6,95"/>
	<path class="st5" d="M891.3,492.8L790.6,583"/>
	<path class="st6" d="M873,392.2l18.3,100.6"/>
	<path class="st7" d="M834.7,674l90.2-84.2"/>
	<path class="st8" d="M614.3,876.8l-42.2,78.1"/>
	<path class="st9" d="M581.9,221.5l69.1-63.6"/>
	<path class="st10" d="M544.9,438.5l81.8,122"/>
	<path class="st11" d="M790.6,582.9l-163.9-22.4"/>
	<path class="st12" d="M790.6,582.9l12.6,220"/>
	<path class="st13" d="M149.7,868.7l64.5-48.4"/>
	<path class="st14" d="M1105.7,239.7l68.8,65.2"/>
	<path class="st15" d="M924.9,589.8l-33.6-97"/>
	<path class="st16" d="M454.7,817.3l72.8-50"/>
	<path class="st17" d="M924.9,589.8l66,31.5"/>
	<path class="st18" d="M375.5,686.7l-187.7-65"/>
	<path class="st19" d="M891.3,492.8l-160-111.1"/>
	<path class="st20" d="M214.3,820.3l61.8-49.5"/>
	<path class="st21" d="M1138.8,805.8L1081.1,662"/>
	<path class="st22" d="M280,893.5l-66.3,39.3"/>
	<path class="st23" d="M375.5,686.7L248.7,504.9"/>
	<path class="st24" d="M375.5,686.7L688.3,643"/>
	<path class="st25" d="M375.5,686.7l-197,65.4"/>
	<path class="st26" d="M581.9,221.5l100-6.8"/>
	<path class="st27" d="M640.1,399.5l-13.4,161"/>
	<path class="st28" d="M519.9,598.6l106.9-38.1"/>
	<path class="st29" d="M1217.3,894.4l-34.6-41.5"/>
	<path class="st30" d="M690,520.7l-63.3,39.8"/>
	<path class="st31" d="M545.8,371L375.5,686.7"/>
	<path class="st32" d="M1081.1,662l160.1-30.7"/>
	<path class="st33" d="M1217.3,894.4l33.1,40.2"/>
	<path class="st34" d="M891.3,492.8l176.4,32.6"/>
	<path class="st35" d="M1081.1,662l133.3-77.6"/>
	<path class="st36" d="M519.7,551.5l107,9.1"/>
	<path class="st37" d="M375.5,686.7L280,893.5"/>
	<path class="st38" d="M1096.8,94.9l-63.3-32.8"/>
	<path class="st39" d="M809.4,136.4l67.1,46.2"/>
	<path class="st40" d="M1033.5,62.1l-61.9-29.2"/>
	<path class="st41" d="M891.3,492.8L715,781.7"/>
	<path class="st42" d="M1081.1,662l-13.3-136.7"/>
	<path class="st43" d="M600.5,806.2l-73.1-39"/>
	<path class="st44" d="M527.4,767.2l111.9-63.8"/>
	<path class="st45" d="M607.8,290l-115.3-39.8"/>
	<path class="st46" d="M644.8,333.2l-99,37.7"/>
	<path class="st47" d="M1335,462.4l-44.4-53"/>
	<path class="st48" d="M688.6,922.2l-74.3-45.4"/>
	<path class="st49" d="M969.1,748l112-86"/>
	<path class="st50" d="M833.9,321.2l-102.5,60.5"/>
	<path class="st51" d="M265.4,257.5L224,296.9"/>
	<path class="st52" d="M375.5,686.7l144.2-135.2"/>
	<path class="st53" d="M909.4,337.7l33.5-49.3"/>
	<path class="st54" d="M248.7,504.9l-39.2-50.3"/>
	<path class="st55" d="M276.7,579.4l98.7,107.3"/>
	<path class="st56" d="M841.5,67.8l77.8,45.9"/>
	<path class="st57" d="M688.3,643l-61.6-82.5"/>
	<path class="st58" d="M545.8,371l94.3,28.5"/>
	<path class="st59" d="M276,770.8l99.4-84.1"/>
	<path class="st60" d="M454.7,817.3l-40.5-53.5"/>
	<path class="st61" d="M1385.8,354.1l-55.2-66.3"/>
	<path class="st62" d="M1081.1,662l76.1-107.2"/>
	<path class="st63" d="M1081.1,662l85.6,75.8"/>
	<path class="st64" d="M336.3,539.3l39.1,147.4"/>
	<path class="st65" d="M581.9,221.5L375.5,686.7"/>
	<path class="st66" d="M375.5,686.7l692.3-161.3"/>
	<path class="st67" d="M600.5,806.2l70.3,34.8"/>
	<path class="st68" d="M375.5,686.7L169.3,554.5"/>
	<path class="st68" d="M375.5,686.7L71.9,737.3"/>
	<path class="st69" d="M1138.8,805.8l173.6,24.8"/>
	<path class="st70" d="M321.1,222.6l-55.7,34.9"/>
	<path class="st71" d="M614.3,876.8l50.5,115.9"/>
	<path class="st72" d="M905.1,672.3l-265-272.8"/>
	<path class="st73" d="M651,157.9l30.9,56.8"/>
	<path class="st74" d="M1281.2,726.6L1081.1,662"/>
	<path class="st75" d="M1138.8,805.8l-77,49.5"/>
	<path class="st76" d="M1138.8,805.8l27.9-68"/>
	<path class="st77" d="M1138.8,805.8L545.8,371"/>
	<path class="st78" d="M545.8,371l-125.9-21.1"/>
	<path class="st79" d="M790.6,582.9L545.8,371"/>
	<path class="st80" d="M186.7,347l37.4-50.2"/>
	<path class="st81" d="M375.5,686.7l515.9-193.9"/>
	<path class="st82" d="M1061.8,855.3l-44.4-60.3"/>
	<path class="st83" d="M724.8,685.7L688.3,643"/>
	<path class="st84" d="M1040.8,425.5l-149.4,67.2"/>
	<path class="st85" d="M924.9,589.8l87.6-31"/>
	<path class="st86" d="M873,392.2l36.4-54.4"/>
	<path class="st87" d="M1312.4,830.6l46.8,40.6"/>
	<path class="st88" d="M581.9,221.5l26,68.4"/>
	<path class="st89" d="M891.3,492.8l-264.6,67.7"/>
	<path class="st90" d="M297.8,965.7L280,893.5"/>
	<path class="st91" d="M1081.1,662l-63.8,133"/>
	<path class="st92" d="M1182.7,852.9l-43.9-47.1"/>
	<path class="st93" d="M1312.4,830.6l51.6-40.8"/>
	<path class="st94" d="M545.8,371l-90.2-73.1"/>
	<path class="st95" d="M600.5,806.2L1081.1,662"/>
	<path class="st96" d="M731.4,381.7l71-98.9"/>
	<path class="st97" d="M905.1,672.3l-13.8-179.5"/>
	<path class="st98" d="M1375.6,523l-40.6-60.6"/>
	<path class="st99" d="M939.3,956.8l48.1,27.7"/>
	<path class="st100" d="M1138.8,805.8l93-47.2"/>
	<path class="st101" d="M614.3,876.8L375.5,686.7"/>
	<path class="st102" d="M1036.8,467.1l-145.5,25.6"/>
	<path class="st103" d="M715,781.7L834.7,674"/>
	<path class="st104" d="M600.5,806.2l-225-119.5"/>
	<path class="st105" d="M1157.8,136.8l-60.9-41.9"/>
	<path class="st106" d="M905.1,672.3l176-10.3"/>
	<path class="st107" d="M414.2,763.8l-38.7-77.1"/>
	<path class="st108" d="M1023.9,182l81.8,57.7"/>
	<path class="st109" d="M607.8,290l-62.1,81"/>
	<path class="st110" d="M1081.1,662l178.5,11.4"/>
	<path class="st111" d="M1260.6,223.7l-48.4-46.9"/>
	<path class="st112" d="M900,875.4L375.5,686.7"/>
	<path class="st113" d="M803.3,802.9l-8.9,76.4"/>
	<path class="st114" d="M1157.8,136.8l54.4,40.1"/>
	<path class="st115" d="M375.5,686.7l-8.2,138.7"/>
	<path class="st116" d="M438.6,464L545,438.6"/>
	<path class="st117" d="M607.8,290l74.1-75.2"/>
	<path class="st118" d="M639.3,703.4l-12.6-142.9"/>
	<path class="st119" d="M644.8,333.2l86.6,48.4"/>
	<path class="st120" d="M969.3,384.8l-77.9,107.9"/>
	<path class="st121" d="M873,392.2L790.6,583"/>
	<path class="st122" d="M1017.3,795l121.5,10.8"/>
	<path class="st123" d="M1422.9,670.3l19.9,50.3"/>
	<path class="st124" d="M787,503.1l-4.7-54.5"/>
	<path class="st125" d="M769.2,947.8l-80.5-25.6"/>
	<path class="st124" d="M512.5,851.9l-9.6,55.9"/>
	<path class="st126" d="M375.5,686.7l-23-206.2"/>
	<path class="st127" d="M375.5,686.7L1017.3,795"/>
	<path class="st128" d="M540.9,679.9l-165.5,6.8"/>
	<path class="st129" d="M545.8,371L873,392.2"/>
	<path class="st130" d="M515.1,509.7l4.6,41.7"/>
	<path class="st131" d="M787,503.1l3.6,79.9"/>
	<path class="st132" d="M512.5,851.9l14.9-84.7"/>
	<path class="st133" d="M581.9,221.5l-53.4-70.6"/>
	<path class="st134" d="M215.1,673.6l160.3,13.1"/>
	<path class="st135" d="M438.6,464l-63.1,222.7"/>
	<path class="st136" d="M438.6,464l107.2-93"/>
	<path class="st137" d="M891.3,492.8L681.9,214.7"/>
	<path class="st138" d="M709.5,290.9l21.9,90.8"/>
	<path class="st139" d="M1081.1,662L900,875.4"/>
	<path class="st140" d="M626.7,560.5l-85.8,119.4"/>
	<path class="st141" d="M545.8,371l334.7,445"/>
</g>
<g id="nodes">
	<circle class="st142" cx="1081.1" cy="662" r="17"/>
	<circle class="st143" cx="790.6" cy="582.9" r="16.3"/>
	<circle class="st144" cx="545.8" cy="371" r="18.6"/>
	<circle class="st145" cx="544.9" cy="438.5" r="15.5"/>
	<circle class="st146" cx="375.5" cy="686.7" r="30"/>
	<circle class="st147" cx="519.9" cy="598.6" r="14.2"/>
	<circle class="st148" cx="1406.2" cy="587.3" r="13.5"/>
	<circle class="st149" cx="1375.6" cy="523" r="13.6"/>
	<ellipse class="st150" cx="794.4" cy="879.4" rx="13" ry="13"/>
	<ellipse class="st151" cx="769.2" cy="947.8" rx="13" ry="13"/>
	<circle class="st152" cx="715" cy="781.7" r="13.6"/>
	<circle class="st153" cx="891.3" cy="492.8" r="21"/>
	<circle class="st154" cx="873" cy="392.2" r="13"/>
	<circle class="st155" cx="834.7" cy="674" r="12.1"/>
	<circle class="st156" cx="924.9" cy="589.8" r="14.9"/>
	<circle class="st157" cx="614.3" cy="876.8" r="13.2"/>
	<circle class="st158" cx="572.1" cy="954.8" r="11.7"/>
	<circle class="st159" cx="626.7" cy="560.5" r="18"/>
	<circle class="st152" cx="581.9" cy="221.5" r="13.6"/>
	
		<ellipse transform="matrix(0.9951 -9.854084e-02 9.854084e-02 0.9951 -12.3905 64.9159)" class="st160" cx="651" cy="157.9" rx="11.9" ry="11.9"/>
	<circle class="st161" cx="803.3" cy="802.9" r="11.7"/>
	<circle class="st162" cx="149.7" cy="868.7" r="11.3"/>
	<circle class="st163" cx="214.3" cy="820.3" r="12.4"/>
	<circle class="st164" cx="1105.7" cy="239.7" r="11.6"/>
	<circle class="st165" cx="1174.5" cy="304.9" r="11.2"/>
	<circle class="st166" cx="454.7" cy="817.3" r="11.6"/>
	<circle class="st167" cx="527.4" cy="767.2" r="12.7"/>
	<circle class="st168" cx="990.9" cy="621.3" r="11"/>
	<circle class="st168" cx="187.8" cy="621.7" r="11"/>
	<circle class="st169" cx="731.4" cy="381.7" r="12.6"/>
	<circle class="st170" cx="276" cy="770.8" r="11.4"/>
	<circle class="st171" cx="1138.8" cy="805.8" r="13.9"/>
	<circle class="st172" cx="280" cy="893.5" r="11.9"/>
	<circle class="st173" cx="213.7" cy="932.8" r="10.8"/>
	<circle class="st174" cx="248.7" cy="504.9" r="11.2"/>
	<circle class="st175" cx="688.3" cy="643" r="11.6"/>
	<circle class="st176" cx="178.5" cy="752.1" r="10.6"/>
	<circle class="st177" cx="681.9" cy="214.7" r="11.8"/>
	<circle class="st175" cx="640.1" cy="399.5" r="11.6"/>
	<circle class="st178" cx="1217.3" cy="894.4" r="11.3"/>
	<circle class="st179" cx="1182.7" cy="852.9" r="11"/>
	<circle class="st180" cx="690" cy="520.7" r="10.6"/>
	<circle class="st181" cx="1241.2" cy="631.3" r="10.5"/>
	
		<ellipse transform="matrix(0.2238 -0.9746 0.9746 0.2238 741.6631 1055.483)" class="st182" cx="1033.5" cy="62.1" rx="12.3" ry="12.3"/>
	<circle class="st183" cx="1250.3" cy="934.6" r="10.4"/>
	<circle class="st184" cx="1067.8" cy="525.4" r="11.6"/>
	<circle class="st185" cx="1214.4" cy="584.4" r="10.4"/>
	<circle class="st186" cx="519.7" cy="551.5" r="11.3"/>
	<circle class="st183" cx="1096.8" cy="94.9" r="10.7"/>
	
		<ellipse transform="matrix(1.612225e-02 -0.9999 0.9999 1.612225e-02 659.9095 943.5374)" class="st187" cx="809.4" cy="136.5" rx="10.4" ry="10.4"/>
	<circle class="st188" cx="876.5" cy="182.7" r="10.4"/>
	<circle class="st188" cx="971.6" cy="32.9" r="10.4"/>
	<circle class="st189" cx="600.5" cy="806.2" r="11.6"/>
	<circle class="st190" cx="639.3" cy="703.4" r="10.7"/>
	<circle class="st191" cx="607.8" cy="290" r="11.5"/>
	<circle class="st192" cx="492.6" cy="250.1" r="10.3"/>
	<circle class="st190" cx="644.8" cy="333.2" r="10.7"/>
	<circle class="st193" cx="1335" cy="462.4" r="10.7"/>
	
		<ellipse transform="matrix(0.3827 -0.9239 0.9239 0.3827 418.4837 1445.1274)" class="st194" cx="1290.6" cy="409.4" rx="10.3" ry="10.3"/>
	<circle class="st176" cx="688.6" cy="922.2" r="10.6"/>
	<circle class="st195" cx="969.1" cy="748" r="10.3"/>
	<circle class="st195" cx="833.9" cy="321.2" r="10.3"/>
	<ellipse class="st196" cx="265.4" cy="257.5" rx="10.8" ry="10.8"/>
	<circle class="st183" cx="224.1" cy="296.8" r="10.7"/>
	<circle class="st197" cx="909.4" cy="337.7" r="10.7"/>
	<circle class="st195" cx="942.9" cy="288.5" r="10.3"/>
	<circle class="st198" cx="209.5" cy="454.6" r="10.3"/>
	<ellipse class="st199" cx="276.7" cy="579.4" rx="10.3" ry="10.3"/>
	<circle class="st200" cx="841.5" cy="67.8" r="10.3"/>
	
		<ellipse transform="matrix(7.088784e-02 -0.9975 0.9975 7.088784e-02 740.812 1022.6823)" class="st201" cx="919.4" cy="113.7" rx="10.3" ry="10.3"/>
	<circle class="st202" cx="414.2" cy="763.8" r="10.6"/>
	<circle class="st203" cx="1385.8" cy="354.1" r="10.2"/>
	<circle class="st203" cx="1330.6" cy="287.8" r="10.2"/>
	<circle class="st204" cx="1157.3" cy="554.9" r="10.2"/>
	<circle class="st165" cx="1166.7" cy="737.8" r="10.7"/>
	<circle class="st204" cx="336.3" cy="539.3" r="10.2"/>
	<circle class="st205" cx="670.8" cy="841" r="10.2"/>
	<circle class="st205" cx="169.3" cy="554.5" r="10.2"/>
	
		<ellipse transform="matrix(3.327796e-02 -0.9994 0.9994 3.327796e-02 -667.3843 784.6243)" class="st205" cx="71.9" cy="737.3" rx="10.2" ry="10.2"/>
	<circle class="st206" cx="1312.4" cy="830.6" r="11"/>
	<circle class="st207" cx="321.1" cy="222.6" r="10.2"/>
	<circle class="st205" cx="664.8" cy="992.6" r="10.2"/>
	<circle class="st164" cx="905.1" cy="672.3" r="10.9"/>
	<circle class="st208" cx="1281.2" cy="726.6" r="10.2"/>
	<circle class="st202" cx="1061.8" cy="855.3" r="10.6"/>
	<circle class="st208" cx="419.9" cy="349.9" r="10.2"/>
	<circle class="st209" cx="186.7" cy="347" r="10.1"/>
	<circle class="st210" cx="1017.3" cy="795" r="11.2"/>
	<circle class="st211" cx="724.8" cy="685.7" r="10.1"/>
	<circle class="st211" cx="1040.8" cy="425.5" r="10.1"/>
	<circle class="st211" cx="1012.5" cy="558.7" r="10.1"/>
	<circle class="st211" cx="1359.2" cy="871.3" r="10.1"/>
	<circle class="st207" cx="297.8" cy="965.7" r="10.1"/>
	<circle class="st207" cx="1363.9" cy="789.8" r="10.1"/>
	<circle class="st207" cx="455.6" cy="297.9" r="10.1"/>
	<circle class="st209" cx="802.4" cy="282.8" r="10.1"/>
	<circle class="st212" cx="939.3" cy="956.8" r="10.1"/>
	<circle class="st212" cx="987.4" cy="984.4" r="10.1"/>
	<circle class="st209" cx="1231.8" cy="758.6" r="10.1"/>
	<circle class="st209" cx="1036.8" cy="467.1" r="10.1"/>
	<circle class="st204" cx="1157.8" cy="136.8" r="10.4"/>
	<circle class="st213" cx="1023.9" cy="182" r="10.1"/>
	<circle class="st214" cx="1259.6" cy="673.4" r="10.1"/>
	<circle class="st213" cx="1260.6" cy="223.7" r="10.1"/>
	<circle class="st204" cx="1212.2" cy="176.9" r="10.4"/>
	<circle class="st215" cx="900" cy="875.4" r="10.4"/>
	<circle class="st212" cx="367.3" cy="825.4" r="10"/>
	<circle class="st216" cx="438.6" cy="464" r="10.7"/>
	<circle class="st212" cx="969.3" cy="384.8" r="10"/>
	<circle class="st217" cx="1422.9" cy="670.3" r="10"/>
	<circle class="st217" cx="1442.8" cy="720.6" r="10"/>
	<circle class="st192" cx="787" cy="503.1" r="10.3"/>
	<circle class="st217" cx="782.4" cy="448.6" r="10"/>
	<circle class="st192" cx="512.5" cy="851.9" r="10.3"/>
	
		<ellipse transform="matrix(0.1602 -0.9871 0.9871 0.1602 -473.7336 1258.793)" class="st217" cx="502.9" cy="907.8" rx="10" ry="10"/>
	<circle class="st217" cx="352.5" cy="480.4" r="10"/>
	<circle class="st192" cx="540.9" cy="679.9" r="10.3"/>
	<circle class="st217" cx="515.1" cy="509.7" r="10"/>
	<circle class="st218" cx="528.5" cy="150.9" r="10"/>
	<circle class="st218" cx="215.1" cy="673.6" r="10"/>
	<circle class="st218" cx="709.5" cy="290.9" r="10"/>
	<circle class="st218" cx="880.5" cy="816" r="10"/>
</g>
<g id="node-labels">
	<text transform="matrix(1 0 0 1 1045.1021 639.2501)" class="st219 st220">nutrition</text>
	<text transform="matrix(1 0 0 1 752.6484 613.1264)" class="st219 st221">education</text>
	<text transform="matrix(1 0 0 1 514.7693 350.1669)" class="st219 st221">schools</text>
	<text transform="matrix(1 0 0 1 524.9395 467.734)" class="st219 st222">lunch</text>
	<text transform="matrix(1 0 0 1 356.9625 692.8572)" class="st223 st224 st221">food</text>
	<text transform="matrix(1 0 0 1 495.8728 581.5739)" class="st219 st222">stamps</text>
	<text transform="matrix(1 0 0 1 1391.702 614.4955)" class="st219 st222">task</text>
	<text transform="matrix(1 0 0 1 1357.1013 550.1996)" class="st219 st222">force</text>
	<text transform="matrix(1 0 0 1 752.926 907.4755)" class="st219 st222">washington</text>
	<text transform="matrix(1 0 0 1 755.4095 977.9986)" class="st219 st222">d.c.</text>
	<text transform="matrix(1 0 0 1 689.5306 808.8739)" class="st219 st222">service</text>
	<text transform="matrix(1 0 0 1 908.3906 522.6477)" class="st219 st221">health</text>
	<text transform="matrix(1 0 0 1 889.617 383.1144)" class="st219 st222">public</text>
	<text transform="matrix(1 0 0 1 824.4426 700.1418)" class="st219 st222">u.s.</text>
	<text transform="matrix(1 0 0 1 881.9998 570.8001)" class="st219 st222">department</text>
	<text transform="matrix(1 0 0 1 594.7966 904.8378)" class="st219 st222">panel</text>
	<text transform="matrix(1 0 0 1 526.1239 982.0214)" class="st219 st222">recommends</text>
	<text transform="matrix(1 0 0 1 590.7172 592.5632)" class="st219 st221">programs</text>
	<text transform="matrix(1 0 0 1 511.9592 228.0855)" class="st219 st222">federal</text>
	<text transform="matrix(1 0 0 1 605.9834 142.5913)" class="st219 st222">government</text>
	<text transform="matrix(1 0 0 1 776.2987 830.1238)" class="st219 st222">welfare</text>
	<text transform="matrix(1 0 0 1 129.7454 895.9036)" class="st219 st222">white</text>
	<text transform="matrix(1 0 0 1 193.2633 847.498)" class="st219 st222">house</text>
	<text transform="matrix(1 0 0 1 1080.718 267.772)" class="st219 st222">hunger</text>
	<text transform="matrix(1 0 0 1 1129.9791 332.0735)" class="st219 st222">malnutrition</text>
	<text transform="matrix(1 0 0 1 441.161 844.4635)" class="st219 st222">low</text>
	<text transform="matrix(1 0 0 1 500.9575 794.4213)" class="st219 st222">income</text>
	<text transform="matrix(1 0 0 1 951.9602 648.4131)" class="st219 st222">agriculture</text>
	<text transform="matrix(1 0 0 1 156.7627 649.7872)" class="st219 st222">products</text>
	<text transform="matrix(1 0 0 1 716.3883 407.8003)" class="st219 st222">care</text>
	<text transform="matrix(1 0 0 1 236.5815 797.9503)" class="st219 st222">conference</text>
	<text transform="matrix(1 0 0 1 1109.801 832.9832)" class="st219 st222">national</text>
	<text transform="matrix(1 0 0 1 250.5121 921.6163)" class="st219 st222">delivery</text>
	<text transform="matrix(1 0 0 1 185.2351 960.4725)" class="st219 st222">systems</text>
	<text transform="matrix(1 0 0 1 232.2496 490.0243)" class="st219 st222">drug</text>
	<text transform="matrix(1 0 0 1 646.7735 670.1963)" class="st219 st222">distribution</text>
	<text transform="matrix(1 0 0 1 148.9594 780.1976)" class="st219 st222">industry</text>
	<text transform="matrix(1 0 0 1 697.5715 220.1176)" class="st219 st222">agency</text>
	<text transform="matrix(1 0 0 1 613.1086 427.5674)" class="st219 st222">feeding</text>
	<text transform="matrix(1 0 0 1 1206.2876 921.5392)" class="st219 st222">vice</text>
	<text transform="matrix(1 0 0 1 1149.7313 878.9587)" class="st219 st222">president</text>
	<text transform="matrix(1 0 0 1 662.0204 505.8375)" class="st219 st222">training</text>
	<text transform="matrix(1 0 0 1 1220.0758 616.4955)" class="st219 st222">status</text>
	<text transform="matrix(1 0 0 1 1011.0236 89.2852)" class="st219 st222">alaska</text>
	<text transform="matrix(1 0 0 1 1216.8671 961.7667)" class="st219 st222">chairman</text>
	<text transform="matrix(1 0 0 1 1039.7838 552.5492)" class="st219 st222">services</text>
	<text transform="matrix(1 0 0 1 1182.7214 568.6596)" class="st219 st222">teaching</text>
	<text transform="matrix(1 0 0 1 490.6848 535.6483)" class="st219 st222">assistance</text>
	<text transform="matrix(1 0 0 1 1070.8243 122.0441)" class="st219 st222">indians</text>
	<text transform="matrix(1 0 0 1 788.0965 164.5396)" class="st219 st222">virgin</text>
	<text transform="matrix(1 0 0 1 851.5286 209.8517)" class="st219 st222">islands</text>
	<text transform="matrix(1 0 0 1 949.6583 60.0679)" class="st219 st222">native</text>
	<text transform="matrix(1 0 0 1 568.528 834.2734)" class="st219 st222">adequate</text>
	<text transform="matrix(1 0 0 1 593.8705 731.6074)" class="st219 st222">maintenance</text>
	<text transform="matrix(1.0233 0 0 1 623.708 294.3271)" class="st219 st225">local</text>
	<text transform="matrix(1 0 0 1 471.5614 277.3346)" class="st219 st222">levels</text>
	<text transform="matrix(1 0 0 1 616.3188 360.432)" class="st219 st222">medical</text>
	<text transform="matrix(1 0 0 1 1300.5007 490.5322)" class="st219 st222">voluntary</text>
	<text transform="matrix(1 0 0 1 1268.6379 436.5898)" class="st219 st222">action</text>
	<text transform="matrix(1 0 0 1 667.1389 949.8247)" class="st219 st222">report</text>
	<text transform="matrix(1 0 0 1 928.0804 776.1196)" class="st219 st222">community</text>
	<text transform="matrix(1 0 0 1 820.9121 349.2512)" class="st219 st222">day</text>
	<text transform="matrix(1 0 0 1 253.4138 285.5474)" class="st219 st222">dry</text>
	<text transform="matrix(1 0 0 1 207.5574 323.9653)" class="st219 st222">milk</text>
	<text transform="matrix(1 0 0 1 924.8973 341.848)" class="st219 st222">private</text>
	<text transform="matrix(1 0 0 1 957.918 292.6685)" class="st219 st222">sectors</text>
	<text transform="matrix(1 0 0 1 152.5481 439.798)" class="st219 st222">administration</text>
	<text transform="matrix(1 0 0 1 242.2224 606.5973)" class="st219 st222">nutritious</text>
	<text transform="matrix(1 0 0 1 818.5521 95.4006)" class="st219 st222">puerto</text>
	<text transform="matrix(1 0 0 1 905.3907 140.8959)" class="st219 st222">rico</text>
	<text transform="matrix(1 0 0 1 399.6996 790.5308)" class="st219 st222">cost</text>
	<text transform="matrix(1 0 0 1 1357.8013 381.2616)" class="st219 st222">nutrient</text>
	<text transform="matrix(1 0 0 1 1304.1274 314.5017)" class="st219 st222">content</text>
	<text transform="matrix(1 0 0 1 1113.9465 540.2737)" class="st219 st222">information</text>
	<text transform="matrix(1 0 0 1 1138.6595 765.8918)" class="st219 st222">policies</text>
	<text transform="matrix(1 0 0 1 294.2994 525.0179)" class="st219 st222">traditional</text>
	<text transform="matrix(1 0 0 1 657.3364 868.1499)" class="st219 st222">diet</text>
	<text transform="matrix(1 0 0 1 130.2911 582.5997)" class="st219 st222">production</text>
	<text transform="matrix(1 0 0 1 50.3762 765.4024)" class="st219 st222">safety</text>
	<text transform="matrix(1 0 0 1 1282.3796 857.8235)" class="st219 st222">research</text>
	<text transform="matrix(1 0 0 1 298.0983 249.7596)" class="st219 st222">nonfat</text>
	<text transform="matrix(1 0 0 1 635.3363 1019.808)" class="st219 st222">believes</text>
	<text transform="matrix(1 0 0 1 887.1064 699.5042)" class="st219 st222">child</text>
	<text transform="matrix(1 0 0 1 1251.1854 754.6936)" class="st219 st222">improve</text>
	<text transform="matrix(1 0 0 1 1029.7781 883.3945)" class="st219 st222">academy</text>
	<text transform="matrix(1 0 0 1 386.8944 377.0361)" class="st219 st222">medicine</text>
	<text transform="matrix(1 0 0 1 167.6777 374.1992)" class="st219 st222">filled</text>
	<text transform="matrix(1 0 0 1 990.8575 822.214)" class="st219 st222">science</text>
	<text transform="matrix(1 0 0 1 682.7675 708.7714)" class="st219 st222">commodity</text>
	<text transform="matrix(1 0 0 1 985.9995 409.8005)" class="st219 st222">comprehensive</text>
	<text transform="matrix(1 0 0 1 984.967 585.9252)" class="st219 st222">defense</text>
	<text transform="matrix(1 0 0 1 1312.6895 899.3404)" class="st219 st222">development</text>
	<text transform="matrix(1 0 0 1 280.32 992.8513)" class="st219 st222">meal</text>
	<text transform="matrix(1 0 0 1 1337.4177 817.009)" class="st219 st222">council</text>
	<text transform="matrix(1 0 0 1 427.0857 325.0664)" class="st219 st222">districts</text>
	<text transform="matrix(1 0 0 1 774.923 269.5038)" class="st219 st222">centers</text>
	<text transform="matrix(1 0 0 1 921.2941 983.9735)" class="st219 st222">heart</text>
	<text transform="matrix(1 0 0 1 961.4012 1011.6296)" class="st219 st222">disease</text>
	<text transform="matrix(1 0 0 1 1201.7727 783.8249)" class="st219 st222">association</text>
	<text transform="matrix(1 0 0 1 1003.579 492.6892)" class="st219 st222">secretary</text>
	<text transform="matrix(1 0 0 1 1124.7939 163.9689)" class="st219 st222">american</text>
	<text transform="matrix(1 0 0 1 990.4349 209.1704)" class="st219 st222">eliminate</text>
	<text transform="matrix(1 0 0 1 1220.0759 701.5221)" class="st219 st222">knowledge</text>
	<text transform="matrix(1 0 0 1 1244.092 250.7769)" class="st219 st222">poor</text>
	<text transform="matrix(1 0 0 1 1188.1919 204.9375)" class="st219 st222">people</text>
	<text transform="matrix(1 0 0 1 874.9932 903.4624)" class="st219 st222">quality</text>
	<text transform="matrix(1 0 0 1 345.772 852.59)" class="st219 st222">habits</text>
	<text transform="matrix(1 0 0 1 423.8796 450.5459)" class="st219 st222">free</text>
	<text transform="matrix(1 0 0 1 979.2886 375.7877)" class="st219 st222">mental</text>
	<text transform="matrix(1 0 0 1 1379.417 697.4491)" class="st219 st222">surveillance</text>
	<text transform="matrix(1 0 0 1 1402.8022 748.7068)" class="st219 st222">monitoring</text>
	<text transform="matrix(1 0 0 1 749.053 488.5459)" class="st219 st222">consumer</text>
	<text transform="matrix(1 0 0 1 743.8722 434.674)" class="st219 st222">protection</text>
	<text transform="matrix(1 0 0 1 489.0242 880.0089)" class="st219 st222">family</text>
	<text transform="matrix(1 0 0 1 490.9459 935.0092)" class="st219 st222">life</text>
	<text transform="matrix(1 0 0 1 318.9933 467.6287)" class="st219 st222">additives</text>
	<text transform="matrix(1 0 0 1 513.438 708.0034)" class="st219 st222">provide</text>
	<text transform="matrix(1 0 0 1 488.6344 494.9047)" class="st219 st222">technical</text>
	<text transform="matrix(1 0 0 1 508.4595 178.1141)" class="st219 st222">funds</text>
	<text transform="matrix(1 0 0 1 185.6521 700.7413)" class="st219 st222">fortified</text>
	<text transform="matrix(1 0 0 1 688.4625 318.0515)" class="st219 st222">infant</text>
	<text transform="matrix(1 0 0 1 851.0165 843.2244)" class="st219 st222">children</text>
</g>
<text transform="matrix(1 0 0 1 327.7296 1070.5098)" class="st219 st226">Figure 1. Text Network of 1969 White House Conference on Food, Nutrition and Health Final Report</text>
</svg>
