<?xml version="1.0" encoding="utf-8"?>
<!-- Generator: Adobe Illustrator 24.0.0, SVG Export Plug-In . SVG Version: 6.00 Build 0)  -->
<svg version="1.1" id="Layer_1" xmlns="http://www.w3.org/2000/svg" xmlns:xlink="http://www.w3.org/1999/xlink" x="0px" y="0px"
	 viewBox="0 0 1564 1080" style="enable-background:new 0 0 1564 1080;" xml:space="preserve">
<style type="text/css">
	.st0{fill:none;stroke:#4CB88A;stroke-width:20;}
	.st1{fill:none;stroke:#2EAD6C;stroke-width:19.2364;}
	.st2{fill:none;stroke:#88CFBA;stroke-width:18.6909;}
	.st3{fill:none;stroke:#64C1A2;stroke-width:16.0727;}
	.st4{fill:none;stroke:#30AE6E;stroke-width:15.5273;}
	.st5{fill:none;stroke:#43B481;stroke-width:12.4727;}
	.st6{fill:none;stroke:#4CB88A;stroke-width:12.1455;}
	.st7{fill:none;stroke:#6EC5A7;stroke-width:11.2727;}
	.st8{fill:none;stroke:#7ECBB3;stroke-width:11.0545;}
	.st9{fill:none;stroke:#78C9AE;stroke-width:9.6364;}
	.st10{fill:none;stroke:#4EB98C;stroke-width:9.3091;}
	.st11{fill:none;stroke:#4CB88A;stroke-width:8.7636;}
	.st12{fill:none;stroke:#76C8AB;stroke-width:8.7636;}
	.st13{fill:none;stroke:#92D3C0;stroke-width:8.6545;}
	.st14{fill:none;stroke:#C4E7E0;stroke-width:8.4364;}
	.st15{fill:none;stroke:#47B685;stroke-width:7.8909;}
	.st16{fill:none;stroke:#84CEB7;stroke-width:7.6727;}
	.st17{fill:none;stroke:#8BD1BA;stroke-width:7.0182;}
	.st18{fill:none;stroke:#5FC08D;stroke-width:7.0182;}
	.st19{fill:none;stroke:#52BA8E;stroke-width:6.9091;}
	.st20{fill:none;stroke:#8FD2BE;stroke-width:6.5818;}
	.st21{fill:none;stroke:#55BB93;stroke-width:6.4727;}
	.st22{fill:none;stroke:#ABDDD1;stroke-width:6.1455;}
	.st23{fill:none;stroke:#58BD89;stroke-width:5.4909;}
	.st24{fill:none;stroke:#4EBA82;stroke-width:5.3818;}
	.st25{fill:none;stroke:#66C392;stroke-width:5.3818;}
	.st26{fill:none;stroke:#7CCAB1;stroke-width:5.2727;}
	.st27{fill:none;stroke:#72C7A6;stroke-width:5.1636;}
	.st28{fill:none;stroke:#52BA90;stroke-width:5.1636;}
	.st29{fill:none;stroke:#B4E1D6;stroke-width:5.0545;}
	.st30{fill:none;stroke:#8CD1B7;stroke-width:4.9455;}
	.st31{fill:none;stroke:#21A85F;stroke-width:4.8364;}
	.st32{fill:none;stroke:#90D3BA;stroke-width:4.6182;}
	.st33{fill:none;stroke:#C1E6DF;stroke-width:4.2909;}
	.st34{fill:none;stroke:#6AC49E;stroke-width:4.0727;}
	.st35{fill:none;stroke:#92D4BC;stroke-width:4.0727;}
	.st36{fill:none;stroke:#7ACAAB;stroke-width:3.9636;}
	.st37{fill:none;stroke:#48B77F;stroke-width:3.9636;}
	.st38{fill:none;stroke:#C1E6DE;stroke-width:3.9636;}
	.st39{fill:none;stroke:#E2F3F4;stroke-width:3.9636;}
	.st40{fill:none;stroke:#C6E8E2;stroke-width:3.8545;}
	.st41{fill:none;stroke:#4BB789;stroke-width:3.8545;}
	.st42{fill:none;stroke:#76C8A9;stroke-width:3.8545;}
	.st43{fill:none;stroke:#85CEB8;stroke-width:3.7455;}
	.st44{fill:none;stroke:#9BD7C6;stroke-width:3.7455;}
	.st45{fill:none;stroke:#C0E6DE;stroke-width:3.7455;}
	.st46{fill:none;stroke:#87CFB3;stroke-width:3.7455;}
	.st47{fill:none;stroke:#DDF1F0;stroke-width:3.7455;}
	.st48{fill:none;stroke:#98D6C3;stroke-width:3.6364;}
	.st49{fill:none;stroke:#95D5BD;stroke-width:3.5273;}
	.st50{fill:none;stroke:#A6DBCD;stroke-width:3.5273;}
	.st51{fill:none;stroke:#D6EFEC;stroke-width:3.5273;}
	.st52{fill:none;stroke:#56BD88;stroke-width:3.5273;}
	.st53{fill:none;stroke:#D3EDEA;stroke-width:3.5273;}
	.st54{fill:none;stroke:#C7E8E3;stroke-width:3.4182;}
	.st55{fill:none;stroke:#6FC798;stroke-width:3.4182;}
	.st56{fill:none;stroke:#E5F4F6;stroke-width:3.4182;}
	.st57{fill:none;stroke:#72C7A6;stroke-width:3.3091;}
	.st58{fill:none;stroke:#70C6A4;stroke-width:3.3091;}
	.st59{fill:none;stroke:#54BC86;stroke-width:3.2;}
	.st60{fill:none;stroke:#B6E2D8;stroke-width:3.2;}
	.st61{fill:none;stroke:#E6F5F6;stroke-width:3.2;}
	.st62{fill:none;stroke:#96D5BE;stroke-width:3.2;}
	.st63{fill:none;stroke:#8BD1B7;stroke-width:3.2;}
	.st64{fill:none;stroke:#70C798;stroke-width:3.2;}
	.st65{fill:none;stroke:#30AE6E;stroke-width:3.0909;}
	.st66{fill:none;stroke:#50BA83;stroke-width:3.0909;}
	.st67{fill:none;stroke:#C1E6DF;stroke-width:2.9818;}
	.st68{fill:none;stroke:#71C899;stroke-width:2.9818;}
	.st69{fill:none;stroke:#8CD1BB;stroke-width:2.9818;}
	.st70{fill:none;stroke:#DEF2F1;stroke-width:2.9818;}
	.st71{fill:none;stroke:#A3DACB;stroke-width:2.9818;}
	.st72{fill:none;stroke:#AEDED2;stroke-width:2.8727;}
	.st73{fill:none;stroke:#93D3C0;stroke-width:2.8727;}
	.st74{fill:none;stroke:#98D6BF;stroke-width:2.8727;}
	.st75{fill:none;stroke:#97D5C2;stroke-width:2.8727;}
	.st76{fill:none;stroke:#94D4C0;stroke-width:2.8727;}
	.st77{fill:none;stroke:#51BA8F;stroke-width:2.8727;}
	.st78{fill:none;stroke:#93D4BB;stroke-width:2.8727;}
	.st79{fill:none;stroke:#4AB788;stroke-width:2.7636;}
	.st80{fill:none;stroke:#DFF2F2;stroke-width:2.7636;}
	.st81{fill:none;stroke:#1AA558;stroke-width:2.7636;}
	.st82{fill:none;stroke:#C0E6DE;stroke-width:2.6545;}
	.st83{fill:none;stroke:#C1E6DF;stroke-width:2.6545;}
	.st84{fill:none;stroke:#8DD2B5;stroke-width:2.6545;}
	.st85{fill:none;stroke:#9FD9C7;stroke-width:2.6545;}
	.st86{fill:none;stroke:#96D5C3;stroke-width:2.6545;}
	.st87{fill:none;stroke:#D0ECE8;stroke-width:2.6545;}
	.st88{fill:none;stroke:#83CDB6;stroke-width:2.5455;}
	.st89{fill:none;stroke:#3EB27C;stroke-width:2.5455;}
	.st90{fill:none;stroke:#BCE4DB;stroke-width:2.5455;}
	.st91{fill:none;stroke:#7ECCAF;stroke-width:2.5455;}
	.st92{fill:none;stroke:#8DD1BC;stroke-width:2.5455;}
	.st93{fill:none;stroke:#D0ECE8;stroke-width:2.5455;}
	.st94{fill:none;stroke:#95D5BC;stroke-width:2.5455;}
	.st95{fill:none;stroke:#75C8A9;stroke-width:2.4364;}
	.st96{fill:none;stroke:#ABDDD1;stroke-width:2.4364;}
	.st97{fill:none;stroke:#7ACAA8;stroke-width:2.4364;}
	.st98{fill:none;stroke:#AFDFD3;stroke-width:2.4364;}
	.st99{fill:none;stroke:#EAF7F9;stroke-width:2.4364;}
	.st100{fill:none;stroke:#A3DACA;stroke-width:2.4364;}
	.st101{fill:none;stroke:#31AE6F;stroke-width:2.4364;}
	.st102{fill:none;stroke:#8ED2B5;stroke-width:2.4364;}
	.st103{fill:none;stroke:#72C7AB;stroke-width:2.4364;}
	.st104{fill:none;stroke:#4FBA83;stroke-width:2.3273;}
	.st105{fill:none;stroke:#DCF1F0;stroke-width:2.3273;}
	.st106{fill:none;stroke:#85CEB3;stroke-width:2.3273;}
	.st107{fill:none;stroke:#67C493;stroke-width:2.3273;}
	.st108{fill:none;stroke:#D5EEEB;stroke-width:2.3273;}
	.st109{fill:none;stroke:#74C8A7;stroke-width:2.3273;}
	.st110{fill:none;stroke:#9AD7C1;stroke-width:2.3273;}
	.st111{fill:none;stroke:#E6F5F6;stroke-width:2.3273;}
	.st112{fill:none;stroke:#6DC696;stroke-width:2.3273;}
	.st113{fill:none;stroke:#80CCB4;stroke-width:2.3273;}
	.st114{fill:none;stroke:#E1F3F3;stroke-width:2.2182;}
	.st115{fill:none;stroke:#75C99B;stroke-width:2.2182;}
	.st116{fill:none;stroke:#91D3BD;stroke-width:2.2182;}
	.st117{fill:none;stroke:#9ED8C8;stroke-width:2.2182;}
	.st118{fill:none;stroke:#89D0B5;stroke-width:2.2182;}
	.st119{fill:none;stroke:#9DD7C7;stroke-width:2.2182;}
	.st120{fill:none;stroke:#8FD3B6;stroke-width:2.2182;}
	.st121{fill:none;stroke:#5ABD98;stroke-width:2.2182;}
	.st122{fill:none;stroke:#88CFB8;stroke-width:2.2182;}
	.st123{fill:none;stroke:#EBF7FA;stroke-width:2.2182;}
	.st124{fill:none;stroke:#E3F4F5;stroke-width:2.1091;}
	.st125{fill:none;stroke:#98D6C4;stroke-width:2.1091;}
	.st126{fill:none;stroke:#75C99C;stroke-width:2.1091;}
	.st127{fill:none;stroke:#58BE89;stroke-width:2.1091;}
	.st128{fill:none;stroke:#6EC697;stroke-width:2.1091;}
	.st129{fill:none;stroke:#53BB91;stroke-width:2.1091;}
	.st130{fill:none;stroke:#CCEAE6;stroke-width:2.1091;}
	.st131{fill:none;stroke:#96D5BF;stroke-width:2;}
	.st132{fill:none;stroke:#A3DACB;stroke-width:2;}
	.st133{fill:none;stroke:#A7DCCD;stroke-width:2;}
	.st134{fill:none;stroke:#76CA9C;stroke-width:2;}
	.st135{fill:none;stroke:#66C392;stroke-width:2;}
	.st136{fill:none;stroke:#87D0B3;stroke-width:2;}
	.st137{fill:none;stroke:#66C29B;stroke-width:2;}
	.st138{fill:none;stroke:#AEDED2;stroke-width:2;}
	.st139{fill:none;stroke:#93D4BC;stroke-width:2;}
	.st140{fill:none;stroke:#91D3BA;stroke-width:2;}
	.st141{fill:none;stroke:#98D6BE;stroke-width:2;}
	.st142{fill:#4CB88A;stroke:#000000;}
	.st143{fill:#51BA8F;stroke:#000000;}
	.st144{fill:#43B581;stroke:#000000;}
	.st145{fill:#56BC94;stroke:#000000;}
	.st146{fill:#009C3E;stroke:#000000;}
	.st147{fill:#5DBE9B;stroke:#000000;}
	.st148{fill:#89D0BB;stroke:#000000;}
	.st149{fill:#87CFB9;stroke:#000000;}
	.st150{fill:#64C1A2;stroke:#000000;}
	.st151{fill:#61C09F;stroke:#000000;}
	.st152{fill:#35AF73;stroke:#000000;}
	.st153{fill:#84CEB7;stroke:#000000;}
	.st154{fill:#59BD97;stroke:#000000;}
	.st155{fill:#63C1A1;stroke:#000000;}
	.st156{fill:#99D6C5;stroke:#000000;}
	.st157{fill:#47B685;stroke:#000000;}
	.st158{fill:#8FD2BE;stroke:#000000;}
	.st159{fill:#9CD7C7;stroke:#000000;}
	.st160{fill:#AFDFD3;stroke:#000000;}
	.st161{fill:#76C8AE;stroke:#000000;}
	.st162{fill:#BFE5DD;stroke:#000000;}
	.st163{fill:#CAEAE4;stroke:#000000;}
	.st164{fill:#9ED8C8;stroke:#000000;}
	.st165{fill:#6BC4A7;stroke:#000000;}
	.st166{fill:#BEE5DD;stroke:#000000;}
	.st167{fill:#6FC5AA;stroke:#000000;}
	.st168{fill:#A8DCCE;stroke:#000000;}
	.st169{fill:#5FBF9D;stroke:#000000;}
	.st170{fill:#91D3C0;stroke:#000000;}
	.st171{fill:#C6E8E2;stroke:#000000;}
	.st172{fill:#B0DFD4;stroke:#000000;}
	.st173{fill:#9DD8C7;stroke:#000000;}
	.st174{fill:#CDEBE6;stroke:#000000;}
	.st175{fill:#97D5C3;stroke:#000000;}
	.st176{fill:#ACDED1;stroke:#000000;}
	.st177{fill:#BCE4DB;stroke:#000000;}
	.st178{fill:#D1EDE9;stroke:#000000;}
	.st179{fill:#D4EEEB;stroke:#000000;}
	.st180{fill:#ABDDD0;stroke:#000000;}
	.st181{fill:#D7EFED;stroke:#000000;}
	.st182{fill:#A0D9C9;stroke:#000000;}
	.st183{fill:#D9F0EE;stroke:#000000;}
	.st184{fill:#ADDED2;stroke:#000000;}
	.st185{fill:#E2F3F4;stroke:#000000;}
	.st186{fill:#9FD9C9;stroke:#000000;}
	.st187{fill:#CBEAE5;stroke:#000000;}
	.st188{fill:#A5DBCD;stroke:#000000;}
	.st189{fill:#DCF1F0;stroke:#000000;}
	.st190{fill:#D8EFED;stroke:#000000;}
	.st191{fill:#E3F4F4;stroke:#000000;}
	.st192{fill:#DEF2F1;stroke:#000000;}
	.st193{fill:#D6EFEC;stroke:#000000;}
	.st194{fill:#C9E9E4;stroke:#000000;}
	.st195{fill:#DFF2F2;stroke:#000000;}
	.st196{fill:#E5F4F6;stroke:#000000;}
	.st197{fill:#CFECE8;stroke:#000000;}
	.st198{fill:#E6F5F6;stroke:#000000;}
	.st199{fill:#E1F3F3;stroke:#000000;}
	.st200{fill:#E3F4F5;stroke:#000000;}
	.st201{fill:#BAE3DA;stroke:#000000;}
	.st202{fill:#E7F5F7;stroke:#000000;}
	.st203{fill:#E4F4F5;stroke:#000000;}
	.st204{fill:#E8F6F8;stroke:#000000;}
	.st205{fill:#B1E0D4;stroke:#000000;}
	.st206{fill:#E6F5F7;stroke:#000000;}
	.st207{fill:#EAF7F9;stroke:#000000;}
	.st208{fill:#EBF7F9;stroke:#000000;}
	.st209{fill:#E9F6F9;stroke:#000000;}
	.st210{fill:#DAF0EF;stroke:#000000;}
	.st211{fill:#CCEBE6;stroke:#000000;}
	.st212{fill:#EBF7FA;stroke:#000000;}
	.st213{fill:#EDF8FB;stroke:#000000;}
	.st214{font-family:'HiraMaruProN-W4-83pv-RKSJ-H';}
	.st215{font-size:20px;}
	.st216{font-size:18px;}
	.st217{fill:#FFF1EA;}
</style>
<g id="edges">
	<path class="st0" d="M545.8,371l48.7,77.9"/>
	<path class="st1" d="M375.5,686.7l150-92.7"/>
	<path class="st2" d="M1406.2,587.3l-30.6-64.3"/>
	<path class="st3" d="M794.4,879.4l-25.3,68.4"/>
	<path class="st4" d="M375.5,686.7l339.6,95"/>
	<path class="st5" d="M926.9,490.9l-136.2,92"/>
	<path class="st6" d="M875.8,389.3l51,101.6"/>
	<path class="st7" d="M840.8,719.2l84.1-129.5"/>
	<path class="st8" d="M614.3,876.8l-42.2,78.1"/>
	<path class="st9" d="M581.9,221.5l69.1-63.6"/>
	<path class="st10" d="M594.5,448.8l54.7,136.9"/>
	<path class="st11" d="M790.6,582.9l-141.5,2.8"/>
	<path class="st12" d="M790.6,582.9l12.6,220"/>
	<path class="st13" d="M149.7,868.7l64.5-48.4"/>
	<path class="st14" d="M1105.7,239.7l68.8,65.2"/>
	<path class="st15" d="M924.9,589.8l2-98.9"/>
	<path class="st16" d="M463.2,816.1l64.2-48.8"/>
	<path class="st17" d="M924.9,589.8l84,49"/>
	<path class="st18" d="M375.5,686.7l-187.7-65"/>
	<path class="st19" d="M926.9,490.9L731.4,381.7"/>
	<path class="st20" d="M214.3,820.3l61.8-49.5"/>
	<path class="st21" d="M1138.8,805.8l-45.1-97.5"/>
	<path class="st22" d="M280,893.5l-66.3,39.3"/>
	<path class="st23" d="M375.5,686.7L248.7,504.9"/>
	<path class="st24" d="M375.5,686.7l256.7-13.7"/>
	<path class="st25" d="M375.5,686.7l-197,59.3"/>
	<path class="st26" d="M581.9,221.5l100-6.8"/>
	<path class="st27" d="M723.7,607l-74.6-21.2"/>
	<path class="st28" d="M525.5,594l123.7-8.2"/>
	<path class="st29" d="M1217.3,894.4l-34.6-41.5"/>
	<path class="st30" d="M687.2,519.8l-38.1,66"/>
	<path class="st31" d="M545.8,371L375.5,686.7"/>
	<path class="st32" d="M1093.7,708.3l147.5-77"/>
	<path class="st33" d="M1217.3,894.4l33.1,40.2"/>
	<path class="st34" d="M926.9,490.9l140.9,34.5"/>
	<path class="st35" d="M1093.7,708.3l120.7-123.9"/>
	<path class="st36" d="M564.5,536.5l84.6,49.3"/>
	<path class="st37" d="M375.5,686.7L280,893.5"/>
	<path class="st38" d="M1096.8,94.9l-63.3-32.8"/>
	<path class="st39" d="M809.4,136.4l55.5,27.5"/>
	<path class="st40" d="M1033.5,62.1l-61.9-29.2"/>
	<path class="st41" d="M926.9,490.9L715,781.7"/>
	<path class="st42" d="M1093.7,708.3l-25.9-182.9"/>
	<path class="st43" d="M600.5,806.2l-73.1-39"/>
	<path class="st44" d="M527.4,767.2l25-123.6"/>
	<path class="st45" d="M607.8,290l-115.3-39.8"/>
	<path class="st46" d="M644.8,333.2l-99,37.7"/>
	<path class="st47" d="M1335,462.4l-44.4-53"/>
	<path class="st48" d="M688.6,922.2l-74.3-45.4"/>
	<path class="st49" d="M970.3,749.2l123.4-40.9"/>
	<path class="st50" d="M833.9,321.2l-102.5,60.5"/>
	<path class="st51" d="M265.4,257.5l-41.4,39.4"/>
	<path class="st52" d="M375.5,686.7l189.1-150.2"/>
	<path class="st53" d="M903.8,335.9l39.1-47.4"/>
	<path class="st54" d="M248.7,504.9l-39.2-50.3"/>
	<path class="st55" d="M276.7,579.4l98.7,107.3"/>
	<path class="st56" d="M768.6,79l66.7-12.8"/>
	<path class="st57" d="M632.2,672.9l17-87.2"/>
	<path class="st58" d="M545.8,371l178,236"/>
	<path class="st59" d="M276,770.8l99.4-84.1"/>
	<path class="st60" d="M463.2,816.1l-57.6-49.8"/>
	<path class="st61" d="M1385.8,354.1l-55.2-66.3"/>
	<path class="st62" d="M1093.7,708.3l63.5-153.4"/>
	<path class="st63" d="M1093.7,708.3l72.9,29.5"/>
	<path class="st64" d="M336.3,539.3l39.1,147.4"/>
	<path class="st65" d="M581.9,221.5L375.5,686.7"/>
	<path class="st66" d="M375.5,686.7l692.3-161.3"/>
	<path class="st67" d="M600.5,806.2l70.3,34.8"/>
	<path class="st68" d="M375.5,686.7L169.3,554.5"/>
	<path class="st68" d="M375.5,686.7L71.9,737.3"/>
	<path class="st69" d="M1138.8,805.8l173.6,24.8"/>
	<path class="st70" d="M321.1,222.6l-55.7,34.9"/>
	<path class="st71" d="M614.3,876.8l50.5,115.9"/>
	<path class="st72" d="M896.5,712.7L723.7,607"/>
	<path class="st73" d="M651,157.9l30.9,56.8"/>
	<path class="st74" d="M1281.2,726.6l-187.5-18.3"/>
	<path class="st75" d="M1138.8,805.8l-77,49.5"/>
	<path class="st76" d="M1138.8,805.8l27.9-68"/>
	<path class="st77" d="M1138.8,805.8L545.8,371"/>
	<path class="st78" d="M545.8,371l-125.9-21.1"/>
	<path class="st79" d="M790.6,582.9L545.8,371"/>
	<path class="st80" d="M186.7,347l37.4-50.2"/>
	<path class="st81" d="M375.5,686.7l551.4-195.8"/>
	<path class="st82" d="M1061.8,855.3L988,799.9"/>
	<path class="st83" d="M676.2,716.5l-44-43.6"/>
	<path class="st84" d="M1040.8,425.5l-113.9,65.4"/>
	<path class="st85" d="M924.9,589.8l87.6-31"/>
	<path class="st86" d="M875.8,389.3l28-53.5"/>
	<path class="st87" d="M1312.4,830.6l46.8,40.6"/>
	<path class="st88" d="M581.9,221.5l26,68.4"/>
	<path class="st89" d="M926.9,490.9l-277.7,94.9"/>
	<path class="st90" d="M297.8,965.7L280,893.5"/>
	<path class="st91" d="M1093.7,708.3L988,799.9"/>
	<path class="st92" d="M1182.7,852.9l-43.9-47.1"/>
	<path class="st93" d="M1312.4,830.6l51.6-40.8"/>
	<path class="st94" d="M545.8,371l-90.2-73.1"/>
	<path class="st95" d="M600.5,806.2l493.2-97.9"/>
	<path class="st96" d="M731.4,381.7l71-98.9"/>
	<path class="st97" d="M896.5,712.7l30.3-221.8"/>
	<path class="st98" d="M1375.6,523l-40.6-60.6"/>
	<path class="st99" d="M939.3,956.8l48.1,27.7"/>
	<path class="st100" d="M1138.8,805.8l93-47.2"/>
	<path class="st101" d="M614.3,876.8L375.5,686.7"/>
	<path class="st102" d="M1036.8,467.1l-110,23.8"/>
	<path class="st103" d="M715,781.7l125.8-62.4"/>
	<path class="st104" d="M600.5,806.2l-225-119.5"/>
	<path class="st105" d="M1157.8,136.8l-60.9-41.9"/>
	<path class="st106" d="M896.5,712.7l197.2-4.4"/>
	<path class="st107" d="M405.6,766.2l-30.2-79.6"/>
	<path class="st108" d="M1023.9,182l81.8,57.7"/>
	<path class="st109" d="M607.8,290l-62.1,81"/>
	<path class="st110" d="M1093.7,708.3l165.8-34.9"/>
	<path class="st111" d="M1260.6,223.7l-48.4-46.9"/>
	<path class="st112" d="M900,875.4L375.5,686.7"/>
	<path class="st113" d="M803.3,802.9l-8.9,76.4"/>
	<path class="st114" d="M1157.8,136.8l54.4,40.1"/>
	<path class="st115" d="M375.5,686.7l-19.2,144.8"/>
	<path class="st116" d="M479.7,450.9l114.8-2.1"/>
	<path class="st117" d="M607.8,290l74.1-75.2"/>
	<path class="st118" d="M552.4,643.6l96.7-57.8"/>
	<path class="st119" d="M644.8,333.2l86.6,48.4"/>
	<path class="st120" d="M969.3,384.8l-42.4,106.1"/>
	<path class="st121" d="M875.8,389.3l-85.2,193.6"/>
	<path class="st122" d="M988,799.9l150.8,5.9"/>
	<path class="st123" d="M1422.9,670.3l19.9,50.3"/>
	<path class="st124" d="M760.2,487.2l-13.6-45.6"/>
	<path class="st125" d="M769.2,947.8l-80.5-25.6"/>
	<path class="st124" d="M512.5,851.9l-9.6,55.9"/>
	<path class="st126" d="M375.5,686.7l-23-206.2"/>
	<path class="st127" d="M375.5,686.7L988,799.9"/>
	<path class="st128" d="M489.5,680.9l-114.1,5.8"/>
	<path class="st129" d="M545.8,371l330,18.4"/>
	<path class="st130" d="M539.4,489.2l25.1,47.4"/>
	<path class="st131" d="M760.2,487.2l30.5,95.8"/>
	<path class="st132" d="M512.5,851.9l14.9-84.7"/>
	<path class="st133" d="M581.9,221.5l-53.4-70.6"/>
	<path class="st134" d="M221.2,671.1l154.2,15.6"/>
	<path class="st135" d="M479.7,450.9L375.5,686.7"/>
	<path class="st136" d="M479.7,450.9l66.1-79.9"/>
	<path class="st137" d="M926.9,490.9l-245-276.2"/>
	<path class="st138" d="M709.5,290.9l21.9,90.8"/>
	<path class="st139" d="M1093.7,708.3L900,875.4"/>
	<path class="st140" d="M649.1,585.8l-159.6,95.1"/>
	<path class="st141" d="M545.8,371L880.5,816"/>
</g>
<g id="nodes">
	<circle class="st142" cx="1093.7" cy="708.3" r="17"/>
	<circle class="st143" cx="790.6" cy="582.9" r="16.3"/>
	<circle class="st144" cx="545.8" cy="371" r="18.6"/>
	<circle class="st145" cx="594.5" cy="448.8" r="15.5"/>
	<circle class="st146" cx="375.5" cy="686.7" r="30"/>
	<circle class="st147" cx="525.5" cy="594" r="14.2"/>
	<circle class="st148" cx="1406.2" cy="587.3" r="13.5"/>
	<circle class="st149" cx="1375.6" cy="523" r="13.6"/>
	
		<ellipse transform="matrix(1.063650e-02 -0.9999 0.9999 1.063650e-02 -93.3563 1664.4049)" class="st150" cx="794.4" cy="879.4" rx="13" ry="13"/>
	
		<ellipse transform="matrix(1 -9.432708e-03 9.432708e-03 1 -8.9062 7.2974)" class="st150" cx="769.2" cy="947.8" rx="13" ry="13"/>
	<circle class="st151" cx="715" cy="781.7" r="13.6"/>
	<circle class="st152" cx="926.9" cy="490.9" r="21"/>
	<circle class="st150" cx="875.8" cy="389.3" r="13"/>
	<circle class="st153" cx="840.8" cy="719.2" r="12.1"/>
	<circle class="st154" cx="924.9" cy="589.8" r="14.9"/>
	<circle class="st155" cx="614.3" cy="876.8" r="13.2"/>
	<circle class="st156" cx="572.1" cy="954.8" r="11.7"/>
	<circle class="st157" cx="649.1" cy="585.8" r="18"/>
	<circle class="st151" cx="581.9" cy="221.5" r="13.6"/>
	
		<ellipse transform="matrix(0.9951 -9.853759e-02 9.853759e-02 0.9951 -12.3956 64.9137)" class="st158" cx="651" cy="157.9" rx="11.9" ry="11.9"/>
	<circle class="st159" cx="803.3" cy="802.9" r="11.7"/>
	<circle class="st160" cx="149.7" cy="868.7" r="11.3"/>
	<circle class="st161" cx="214.3" cy="820.3" r="12.4"/>
	<circle class="st162" cx="1105.7" cy="239.7" r="11.6"/>
	<circle class="st163" cx="1174.5" cy="304.9" r="11.2"/>
	<circle class="st164" cx="463.2" cy="816.1" r="11.6"/>
	<circle class="st165" cx="527.4" cy="767.2" r="12.7"/>
	<circle class="st166" cx="1008.9" cy="638.8" r="11"/>
	<circle class="st166" cx="187.8" cy="621.7" r="11"/>
	<circle class="st167" cx="731.4" cy="381.7" r="12.6"/>
	<circle class="st168" cx="276" cy="770.8" r="11.4"/>
	<circle class="st169" cx="1138.8" cy="805.8" r="13.9"/>
	<circle class="st170" cx="280" cy="893.5" r="11.9"/>
	<circle class="st171" cx="213.7" cy="932.8" r="10.8"/>
	<circle class="st172" cx="248.7" cy="504.9" r="11.2"/>
	<circle class="st173" cx="632.2" cy="672.9" r="11.6"/>
	<circle class="st174" cx="178.5" cy="746" r="10.6"/>
	<circle class="st175" cx="681.9" cy="214.7" r="11.8"/>
	<circle class="st173" cx="723.7" cy="607" r="11.6"/>
	<circle class="st176" cx="1217.3" cy="894.4" r="11.3"/>
	<circle class="st177" cx="1182.7" cy="852.9" r="11"/>
	<circle class="st178" cx="687.2" cy="519.8" r="10.6"/>
	<circle class="st179" cx="1241.2" cy="631.3" r="10.5"/>
	<circle class="st180" cx="1033.5" cy="62.1" r="12.3"/>
	<circle class="st181" cx="1250.3" cy="934.6" r="10.4"/>
	<circle class="st182" cx="1067.8" cy="525.4" r="11.6"/>
	<circle class="st183" cx="1214.4" cy="584.4" r="10.4"/>
	<circle class="st184" cx="564.5" cy="536.5" r="11.3"/>
	<circle class="st181" cx="1096.8" cy="94.9" r="10.7"/>
	
		<ellipse transform="matrix(1.612273e-02 -0.9999 0.9999 1.612273e-02 659.9556 943.5707)" class="st185" cx="809.4" cy="136.4" rx="10.4" ry="10.4"/>
	<circle class="st185" cx="864.9" cy="163.9" r="10.4"/>
	<circle class="st185" cx="971.6" cy="32.9" r="10.4"/>
	<circle class="st186" cx="600.5" cy="806.2" r="11.6"/>
	<circle class="st187" cx="552.4" cy="643.6" r="10.7"/>
	<circle class="st188" cx="607.8" cy="290" r="11.5"/>
	<circle class="st189" cx="492.6" cy="250.1" r="10.3"/>
	<circle class="st187" cx="644.8" cy="333.2" r="10.7"/>
	<circle class="st190" cx="1335" cy="462.4" r="10.7"/>
	
		<ellipse transform="matrix(0.3827 -0.9239 0.9239 0.3827 418.4863 1445.1166)" class="st191" cx="1290.6" cy="409.4" rx="10.3" ry="10.3"/>
	<circle class="st174" cx="688.6" cy="922.2" r="10.6"/>
	<circle class="st192" cx="970.3" cy="749.2" r="10.3"/>
	<circle class="st192" cx="833.9" cy="321.2" r="10.3"/>
	
		<ellipse transform="matrix(0.9239 -0.3827 0.3827 0.9239 -78.3192 121.1656)" class="st193" cx="265.4" cy="257.5" rx="10.8" ry="10.8"/>
	<circle class="st181" cx="224.1" cy="296.8" r="10.7"/>
	<circle class="st194" cx="903.8" cy="335.9" r="10.7"/>
	<circle class="st192" cx="942.9" cy="288.5" r="10.3"/>
	<circle class="st195" cx="209.5" cy="454.6" r="10.3"/>
	
		<ellipse transform="matrix(0.6096 -0.7927 0.7927 0.6096 -351.268 445.5467)" class="st195" cx="276.7" cy="579.4" rx="10.3" ry="10.3"/>
	<circle class="st196" cx="768.6" cy="79" r="10.3"/>
	<circle class="st196" cx="835.3" cy="66.2" r="10.3"/>
	<circle class="st197" cx="405.6" cy="766.2" r="10.6"/>
	<circle class="st198" cx="1385.8" cy="354.1" r="10.2"/>
	<circle class="st198" cx="1330.6" cy="287.8" r="10.2"/>
	<circle class="st199" cx="1157.3" cy="554.9" r="10.2"/>
	<circle class="st163" cx="1166.7" cy="737.8" r="10.7"/>
	<circle class="st199" cx="336.3" cy="539.3" r="10.2"/>
	<circle class="st200" cx="670.8" cy="841" r="10.2"/>
	<circle class="st200" cx="169.3" cy="554.5" r="10.2"/>
	<circle class="st200" cx="71.9" cy="737.3" r="10.2"/>
	<circle class="st201" cx="1312.4" cy="830.6" r="11"/>
	<circle class="st202" cx="321.1" cy="222.6" r="10.2"/>
	<circle class="st200" cx="664.8" cy="992.6" r="10.2"/>
	<circle class="st162" cx="896.5" cy="712.7" r="10.9"/>
	<circle class="st203" cx="1281.2" cy="726.6" r="10.2"/>
	<circle class="st197" cx="1061.8" cy="855.3" r="10.6"/>
	<circle class="st203" cx="419.9" cy="349.9" r="10.2"/>
	<circle class="st204" cx="186.7" cy="347" r="10.1"/>
	<circle class="st205" cx="988" cy="799.9" r="11.2"/>
	<circle class="st206" cx="676.2" cy="716.5" r="10.1"/>
	<circle class="st206" cx="1040.8" cy="425.5" r="10.1"/>
	<circle class="st206" cx="1012.5" cy="558.7" r="10.1"/>
	<circle class="st206" cx="1359.2" cy="871.3" r="10.1"/>
	<circle class="st202" cx="297.8" cy="965.7" r="10.1"/>
	<circle class="st202" cx="1363.9" cy="789.8" r="10.1"/>
	<circle class="st202" cx="455.6" cy="297.9" r="10.1"/>
	<circle class="st204" cx="802.4" cy="282.8" r="10.1"/>
	<circle class="st207" cx="939.3" cy="956.8" r="10.1"/>
	<circle class="st207" cx="987.4" cy="984.4" r="10.1"/>
	<circle class="st204" cx="1231.8" cy="758.6" r="10.1"/>
	<circle class="st204" cx="1036.8" cy="467.1" r="10.1"/>
	<circle class="st199" cx="1157.8" cy="136.8" r="10.4"/>
	<circle class="st208" cx="1023.9" cy="182" r="10.1"/>
	<circle class="st209" cx="1259.6" cy="673.4" r="10.1"/>
	<circle class="st208" cx="1260.6" cy="223.7" r="10.1"/>
	<circle class="st199" cx="1212.2" cy="176.9" r="10.4"/>
	<circle class="st210" cx="900" cy="875.4" r="10.4"/>
	<circle class="st207" cx="356.3" cy="831.5" r="10"/>
	<circle class="st211" cx="479.7" cy="450.9" r="10.7"/>
	<circle class="st207" cx="969.3" cy="384.8" r="10"/>
	<circle class="st212" cx="1422.9" cy="670.3" r="10"/>
	<circle class="st212" cx="1442.8" cy="720.6" r="10"/>
	<circle class="st189" cx="760.2" cy="487.2" r="10.3"/>
	<circle class="st212" cx="746.6" cy="441.6" r="10"/>
	<circle class="st189" cx="512.5" cy="851.9" r="10.3"/>
	<circle class="st212" cx="502.9" cy="907.8" r="10"/>
	<circle class="st212" cx="352.5" cy="480.4" r="10"/>
	<circle class="st189" cx="489.5" cy="680.9" r="10.3"/>
	<circle class="st212" cx="539.4" cy="489.2" r="10"/>
	<circle class="st213" cx="528.5" cy="150.9" r="10"/>
	<circle class="st213" cx="221.2" cy="671.1" r="10"/>
	<circle class="st213" cx="709.5" cy="290.9" r="10"/>
	<circle class="st213" cx="880.5" cy="816" r="10"/>
</g>
<g id="node-labels">
	<text transform="matrix(1 0 0 1 1054.2 743.8721)" class="st214 st215">nutrition</text>
	<text transform="matrix(1 0 0 1 744.7668 614.5493)" class="st214 st215">education</text>
	<text transform="matrix(1 0 0 1 509.2882 350.0131)" class="st214 st215">schools</text>
	<text transform="matrix(1 0 0 1 612.2864 454.6121)" class="st214 st216">lunch</text>
	<text transform="matrix(1 0 0 1 353.541 694.4887)" class="st217 st214 st215">food</text>
	<text transform="matrix(1 0 0 1 456.7378 564.6987)" class="st214 st216">stamps</text>
	<text transform="matrix(1 0 0 1 1387.7767 613.914)" class="st214 st216">task</text>
	<text transform="matrix(1 0 0 1 1352.5181 549.6449)" class="st214 st216">force</text>
	<text transform="matrix(1 0 0 1 744.2581 908.9293)" class="st214 st216">washington</text>
	<text transform="matrix(1 0 0 1 753.8344 976.4171)" class="st214 st216">d.c.</text>
	<text transform="matrix(1 0 0 1 684.9381 809.2969)" class="st214 st216">service</text>
	<text transform="matrix(1 0 0 1 843.8273 496.689)" class="st214 st215">health</text>
	<text transform="matrix(1 0 0 1 890.5043 380.1639)" class="st214 st216">public</text>
	<text transform="matrix(1 0 0 1 827.9106 743.8718)" class="st214 st216">u.s.</text>
	<text transform="matrix(1 0 0 1 874.7327 618.2761)" class="st214 st216">department</text>
	<text transform="matrix(1 0 0 1 590.8507 903.2554)" class="st214 st216">panel</text>
	<text transform="matrix(1 0 0 1 515.8499 980.4398)" class="st214 st216">recommends</text>
	<text transform="matrix(1 0 0 1 607.1971 617.276)" class="st214 st216">programs</text>
	<text transform="matrix(1 0 0 1 503.8233 227.0854)" class="st214 st216">federal</text>
	<text transform="matrix(1 0 0 1 598.4923 144.176)" class="st214 st216">government</text>
	<text transform="matrix(1 0 0 1 770.9402 831.5602)" class="st214 st216">welfare</text>
	<text transform="matrix(1 0 0 1 126.1697 894.3221)" class="st214 st216">white</text>
	<text transform="matrix(1 0 0 1 188.0708 845.9165)" class="st214 st216">house</text>
	<text transform="matrix(1 0 0 1 1074.9121 266.2213)" class="st214 st216">hunger</text>
	<text transform="matrix(1 0 0 1 1122.3734 330.4966)" class="st214 st216">malnutrition</text>
	<text transform="matrix(1 0 0 1 448.4222 841.6609)" class="st214 st216">low</text>
	<text transform="matrix(1 0 0 1 504.4701 793.8443)" class="st214 st216">income</text>
	<text transform="matrix(1 0 0 1 961.6692 665.3232)" class="st214 st216">agriculture</text>
	<text transform="matrix(1 0 0 1 148.4009 648.2048)" class="st214 st216">products</text>
	<text transform="matrix(1 0 0 1 712.1725 407.297)" class="st214 st216">care</text>
	<text transform="matrix(1 0 0 1 224.8647 796.3957)" class="st214 st216">conference</text>
	<text transform="matrix(1 0 0 1 1104.4211 834.4061)" class="st214 st216">national</text>
	<text transform="matrix(1 0 0 1 246.043 920.0701)" class="st214 st216">delivery</text>
	<text transform="matrix(1 0 0 1 177.6484 959.0573)" class="st214 st216">systems</text>
	<text transform="matrix(1 0 0 1 228.299 531.4736)" class="st214 st216">drug</text>
	<text transform="matrix(1 0 0 1 606.8434 658.6709)" class="st214 st216">distribution</text>
	<text transform="matrix(1 0 0 1 142.6674 772.5464)" class="st214 st216">industry</text>
	<text transform="matrix(1 0 0 1 695.7669 219.1174)" class="st214 st216">agency</text>
	<text transform="matrix(1 0 0 1 692.1249 634.5524)" class="st214 st216">feeding</text>
	<text transform="matrix(1 0 0 1 1201.0698 920.9622)" class="st214 st216">vice</text>
	<text transform="matrix(1 0 0 1 1141.3126 879.3808)" class="st214 st216">president</text>
	<text transform="matrix(1 0 0 1 653.9706 545.6445)" class="st214 st216">training</text>
	<text transform="matrix(1 0 0 1 1217.1814 616.8339)" class="st214 st216">status</text>
	<text transform="matrix(1 0 0 1 1006.3037 87.7036)" class="st214 st216">alaska</text>
	<text transform="matrix(1 0 0 1 1210.3534 960.1896)" class="st214 st216">chairman</text>
	<text transform="matrix(1 0 0 1 1031.8789 550.9721)" class="st214 st216">services</text>
	<text transform="matrix(1 0 0 1 1182.7216 569.6593)" class="st214 st216">teaching</text>
	<text transform="matrix(1 0 0 1 518.4993 522.1142)" class="st214 st216">assistance</text>
	<text transform="matrix(1 0 0 1 1066.2137 121.467)" class="st214 st216">indians</text>
	<text transform="matrix(1 0 0 1 785.4203 162.9934)" class="st214 st216">virgin</text>
	<text transform="matrix(1 0 0 1 834.8804 189.5074)" class="st214 st216">islands</text>
	<text transform="matrix(1 0 0 1 945.2429 58.4863)" class="st214 st216">native</text>
	<text transform="matrix(1 0 0 1 559.6205 832.691)" class="st214 st216">adequate</text>
	<text transform="matrix(1 0 0 1 496.9502 670.2023)" class="st214 st216">maintenance</text>
	<text transform="matrix(1 0 0 1 621.8121 296.6684)" class="st214 st216">local</text>
	<text transform="matrix(1 0 0 1 464.2637 273.7531)" class="st214 st216">levels</text>
	<text transform="matrix(1 0 0 1 609.7747 360.855)" class="st214 st216">medical</text>
	<text transform="matrix(1 0 0 1 1294.1161 488.9814)" class="st214 st216">voluntary</text>
	<text transform="matrix(1 0 0 1 1263.9255 435.0127)" class="st214 st216">action</text>
	<text transform="matrix(1 0 0 1 661.0165 948.3777)" class="st214 st216">report</text>
	<text transform="matrix(1 0 0 1 922.636 775.7958)" class="st214 st216">community</text>
	<text transform="matrix(1 0 0 1 818.1658 347.7004)" class="st214 st216">day</text>
	<text transform="matrix(1 0 0 1 250.939 283.9966)" class="st214 st216">dry</text>
	<text transform="matrix(1 0 0 1 207.139 322.4048)" class="st214 st216">milk</text>
	<text transform="matrix(1 0 0 1 917.6359 339.8483)" class="st214 st216">private</text>
	<text transform="matrix(1 0 0 1 956.2103 292.9519)" class="st214 st216">sectors</text>
	<text transform="matrix(1 0 0 1 147.2064 480.2209)" class="st214 st216">administration</text>
	<text transform="matrix(1 0 0 1 234.9824 605.0203)" class="st214 st216">nutritious</text>
	<text transform="matrix(1 0 0 1 739.5328 105.1714)" class="st214 st216">puerto</text>
	<text transform="matrix(1 0 0 1 818.8745 91.8162)" class="st214 st216">rico</text>
	<text transform="matrix(1 0 0 1 386.7945 791.5267)" class="st214 st216">cost</text>
	<text transform="matrix(1 0 0 1 1351.208 379.6801)" class="st214 st216">nutrient</text>
	<text transform="matrix(1 0 0 1 303.4866 1068.2969)" class="st214 st215">Figure 1. Text Network of 1969 White House Conference on Food, Nutrition and Health Final Report  </text>
	<text transform="matrix(1 0 0 1 1296.9851 313.0555)" class="st214 st216">content</text>
	<text transform="matrix(1 0 0 1 1118.0176 539.3326)" class="st214 st216">information</text>
	<text transform="matrix(1 0 0 1 1134.3344 764.314)" class="st214 st216">policies</text>
	<text transform="matrix(1 0 0 1 292.0973 564.8848)" class="st214 st216">traditional</text>
	<text transform="matrix(1 0 0 1 654.3081 866.5684)" class="st214 st216">diet</text>
	<text transform="matrix(1 0 0 1 121.8093 581.0219)" class="st214 st216">production</text>
	<text transform="matrix(1 0 0 1 44.5419 763.8786)" class="st214 st216">safety</text>
	<text transform="matrix(1 0 0 1 1273.8804 856.2419)" class="st214 st216">research</text>
	<text transform="matrix(1 0 0 1 292.4797 248.2051)" class="st214 st216">nonfat</text>
	<text transform="matrix(1 0 0 1 629.7424 1018.231)" class="st214 st216">believes</text>
	<text transform="matrix(1 0 0 1 876.3221 738.2683)" class="st214 st216">child</text>
	<text transform="matrix(1 0 0 1 1246.1326 750.1157)" class="st214 st216">improve</text>
	<text transform="matrix(1 0 0 1 1022.8144 881.8438)" class="st214 st216">academy</text>
	<text transform="matrix(1 0 0 1 373.4323 377.4592)" class="st214 st216">medicine</text>
	<text transform="matrix(1 0 0 1 165.9803 372.6357)" class="st214 st216">filled</text>
	<text transform="matrix(1 0 0 1 955.3757 825.5269)" class="st214 st216">science</text>
	<text transform="matrix(1 0 0 1 627.5094 703.4142)" class="st214 st216">commodity</text>
	<text transform="matrix(1 0 0 1 974.7805 452.0591)" class="st214 st216">comprehensive</text>
	<text transform="matrix(1 0 0 1 977.5129 584.3662)" class="st214 st216">defense</text>
	<text transform="matrix(1 0 0 1 1303.0425 897.758)" class="st214 st216">development</text>
	<text transform="matrix(1 0 0 1 277.4974 991.2653)" class="st214 st216">meal</text>
	<text transform="matrix(1 0 0 1 1333.5337 815.4319)" class="st214 st216">council</text>
	<text transform="matrix(1 0 0 1 406.05 324.4895)" class="st214 st216">districts</text>
	<text transform="matrix(1 0 0 1 770.4998 270.0503)" class="st214 st216">centers</text>
	<text transform="matrix(1 0 0 1 916.0341 982.3875)" class="st214 st216">heart</text>
	<text transform="matrix(1 0 0 1 954.541 1010.0526)" class="st214 st216">disease</text>
	<text transform="matrix(1 0 0 1 1203.7406 784.2478)" class="st214 st216">association</text>
	<text transform="matrix(1 0 0 1 995.1981 493.3677)" class="st214 st216">secretary</text>
	<text transform="matrix(1 0 0 1 1116.0179 163.3918)" class="st214 st216">american</text>
	<text transform="matrix(1 0 0 1 985.2039 207.5889)" class="st214 st216">eliminate</text>
	<text transform="matrix(1 0 0 1 1224.6799 660.8219)" class="st214 st216">knowledge</text>
	<text transform="matrix(1 0 0 1 1240.2312 249.2705)" class="st214 st216">poor</text>
	<text transform="matrix(1 0 0 1 1183.0941 203.355)" class="st214 st216">people</text>
	<text transform="matrix(1 0 0 1 871.0547 901.9163)" class="st214 st216">quality</text>
	<text transform="matrix(1 0 0 1 329.55 857.118)" class="st214 st216">habits</text>
	<text transform="matrix(1 0 0 1 428.5863 457.0554)" class="st214 st216">free</text>
	<text transform="matrix(1 0 0 1 983.809 389.5759)" class="st214 st216">mental</text>
	<text transform="matrix(1 0 0 1 1371.6967 695.8721)" class="st214 st216">surveillance</text>
	<text transform="matrix(1 0 0 1 1395.9657 747.1606)" class="st214 st216">monitoring</text>
	<text transform="matrix(1 0 0 1 727.2218 511.8059)" class="st214 st216">consumer</text>
	<text transform="matrix(1 0 0 1 702.339 466.095)" class="st214 st216">protection</text>
	<text transform="matrix(1 0 0 1 486.7056 878.4807)" class="st214 st216">family</text>
	<text transform="matrix(1 0 0 1 489.9698 933.4456)" class="st214 st216">life</text>
	<text transform="matrix(1 0 0 1 313.3098 506.0518)" class="st214 st216">additives</text>
	<text transform="matrix(1 0 0 1 467.7379 703.3602)" class="st214 st216">provide</text>
	<text transform="matrix(1 0 0 1 500.4861 476.7617)" class="st214 st216">technical</text>
	<text transform="matrix(1 0 0 1 503.6464 176.5551)" class="st214 st216">funds</text>
	<text transform="matrix(1 0 0 1 186.1003 696.7402)" class="st214 st216">fortified</text>
	<text transform="matrix(1 0 0 1 675.8319 278.485)" class="st214 st216">infant</text>
	<text transform="matrix(1 0 0 1 845.8274 841.6473)" class="st214 st216">children</text>
</g>
<path d="M593.2,384.5"/>
<path d="M565.8,378.1"/>
<text transform="matrix(1 0 0 1 741.7646 538.099)" class="st214 st216">nutrient</text>
</svg>
